{"glyphs":{"0":{"ha":1544,"x_min":76,"x_max":1468,"o":"m 492 974 q 553 987 492 974 q 772 1000 615 1000 q 1053 974 929 1000 q 1272 894 1176 949 q 1417 746 1367 839 q 1468 526 1468 653 l 1468 456 q 1417 236 1468 329 q 1272 88 1367 143 q 1053 8 1176 33 q 772 -18 929 -18 q 492 8 615 -18 q 273 88 368 33 q 127 236 178 143 q 76 456 76 329 l 76 526 q 127 746 76 653 q 273 894 178 839 q 492 974 368 949 m 279 456 q 308 333 279 385 q 380 251 336 281 q 492 203 424 221 q 625 181 561 186 q 772 176 689 176 q 1085 214 975 176 l 654 753 l 897 753 l 1236 328 q 1265 456 1265 383 l 1265 526 q 1237 649 1265 597 q 1165 731 1208 701 q 1052 778 1121 761 q 919 801 983 796 q 772 806 856 806 q 625 801 689 806 q 492 778 561 796 q 380 731 424 761 q 308 649 336 701 q 279 526 279 597 l 279 456 z "},"×":{"ha":843,"x_min":153,"x_max":690,"o":"m 690 0 l 153 0 l 153 972 l 690 972 l 690 0 m 421 567 l 568 897 l 274 897 l 421 567 m 614 133 l 614 838 l 457 486 l 614 133 m 229 136 l 385 486 l 229 835 l 229 136 m 274 75 l 568 75 l 421 404 l 274 75 z "},"÷":{"ha":843,"x_min":153,"x_max":690,"o":"m 690 0 l 153 0 l 153 972 l 690 972 l 690 0 m 421 567 l 568 897 l 274 897 l 421 567 m 614 133 l 614 838 l 457 486 l 614 133 m 229 136 l 385 486 l 229 835 l 229 136 m 274 75 l 568 75 l 421 404 l 274 75 z "},"Ĳ":{"ha":843,"x_min":153,"x_max":690,"o":"m 690 0 l 153 0 l 153 972 l 690 972 l 690 0 m 421 567 l 568 897 l 274 897 l 421 567 m 614 133 l 614 838 l 457 486 l 614 133 m 229 136 l 385 486 l 229 835 l 229 136 m 274 75 l 568 75 l 421 404 l 274 75 z "},"ĳ":{"ha":843,"x_min":153,"x_max":690,"o":"m 690 0 l 153 0 l 153 972 l 690 972 l 690 0 m 421 567 l 568 897 l 274 897 l 421 567 m 614 133 l 614 838 l 457 486 l 614 133 m 229 136 l 385 486 l 229 835 l 229 136 m 274 75 l 568 75 l 421 404 l 274 75 z "},"ĸ":{"ha":843,"x_min":153,"x_max":690,"o":"m 690 0 l 153 0 l 153 972 l 690 972 l 690 0 m 421 567 l 568 897 l 274 897 l 421 567 m 614 133 l 614 838 l 457 486 l 614 133 m 229 136 l 385 486 l 229 835 l 229 136 m 274 75 l 568 75 l 421 404 l 274 75 z "},"ŉ":{"ha":843,"x_min":153,"x_max":690,"o":"m 690 0 l 153 0 l 153 972 l 690 972 l 690 0 m 421 567 l 568 897 l 274 897 l 421 567 m 614 133 l 614 838 l 457 486 l 614 133 m 229 136 l 385 486 l 229 835 l 229 136 m 274 75 l 568 75 l 421 404 l 274 75 z "},"ȴ":{"ha":843,"x_min":153,"x_max":690,"o":"m 690 0 l 153 0 l 153 972 l 690 972 l 690 0 m 421 567 l 568 897 l 274 897 l 421 567 m 614 133 l 614 838 l 457 486 l 614 133 m 229 136 l 385 486 l 229 835 l 229 136 m 274 75 l 568 75 l 421 404 l 274 75 z "},"ȵ":{"ha":843,"x_min":153,"x_max":690,"o":"m 690 0 l 153 0 l 153 972 l 690 972 l 690 0 m 421 567 l 568 897 l 274 897 l 421 567 m 614 133 l 614 838 l 457 486 l 614 133 m 229 136 l 385 486 l 229 835 l 229 136 m 274 75 l 568 75 l 421 404 l 274 75 z "},"ȶ":{"ha":843,"x_min":153,"x_max":690,"o":"m 690 0 l 153 0 l 153 972 l 690 972 l 690 0 m 421 567 l 568 897 l 274 897 l 421 567 m 614 133 l 614 838 l 457 486 l 614 133 m 229 136 l 385 486 l 229 835 l 229 136 m 274 75 l 568 75 l 421 404 l 274 75 z "}," ":{"ha":486,"x_min":0,"x_max":0,"o":""},",":{"ha":775,"x_min":-204,"x_max":726,"o":"m -204 -194 l 408 186 l 726 186 l 114 -194 l -204 -194 z "},"-":{"ha":789,"x_min":97,"x_max":692,"o":"m 692 317 l 97 317 l 97 515 l 692 515 l 692 317 z "},".":{"ha":594,"x_min":97,"x_max":497,"o":"m 97 0 l 97 200 l 497 200 l 497 0 l 97 0 z "},"/":{"ha":878,"x_min":0,"x_max":878,"o":"m 671 972 l 878 972 l 207 0 l 0 0 l 671 972 z "},"A":{"ha":1515,"x_min":14,"x_max":1501,"o":"m 1264 0 l 1124 244 l 392 244 l 251 0 l 14 0 l 572 972 l 943 972 l 1501 0 l 1264 0 m 501 436 l 1014 436 l 758 882 l 501 436 z "},"À":{"ha":1515,"x_min":14,"x_max":1501,"o":"m 1264 0 l 1124 244 l 392 244 l 251 0 l 14 0 l 572 972 l 943 972 l 1501 0 l 1264 0 m 501 436 l 1014 436 l 758 882 l 501 436 z "},"Á":{"ha":1515,"x_min":14,"x_max":1501,"o":"m 1264 0 l 1124 244 l 392 244 l 251 0 l 14 0 l 572 972 l 943 972 l 1501 0 l 1264 0 m 501 436 l 1014 436 l 758 882 l 501 436 z "},"Â":{"ha":1515,"x_min":14,"x_max":1501,"o":"m 1264 0 l 1124 244 l 392 244 l 251 0 l 14 0 l 572 972 l 943 972 l 1501 0 l 1264 0 m 501 436 l 1014 436 l 758 882 l 501 436 z "},"Ã":{"ha":1515,"x_min":14,"x_max":1501,"o":"m 1264 0 l 1124 244 l 392 244 l 251 0 l 14 0 l 572 972 l 943 972 l 1501 0 l 1264 0 m 501 436 l 1014 436 l 758 882 l 501 436 z "},"Ä":{"ha":1515,"x_min":14,"x_max":1501,"o":"m 1264 0 l 1124 244 l 392 244 l 251 0 l 14 0 l 572 972 l 943 972 l 1501 0 l 1264 0 m 501 436 l 1014 436 l 758 882 l 501 436 z "},"Å":{"ha":1515,"x_min":14,"x_max":1501,"o":"m 1264 0 l 1124 244 l 392 244 l 251 0 l 14 0 l 572 972 l 943 972 l 1501 0 l 1264 0 m 501 436 l 1014 436 l 758 882 l 501 436 z "},"Æ":{"ha":1515,"x_min":14,"x_max":1501,"o":"m 1264 0 l 1124 244 l 392 244 l 251 0 l 14 0 l 572 972 l 943 972 l 1501 0 l 1264 0 m 501 436 l 1014 436 l 758 882 l 501 436 z "},"Ā":{"ha":1515,"x_min":14,"x_max":1501,"o":"m 1264 0 l 1124 244 l 392 244 l 251 0 l 14 0 l 572 972 l 943 972 l 1501 0 l 1264 0 m 501 436 l 1014 436 l 758 882 l 501 436 z "},"Ă":{"ha":1515,"x_min":14,"x_max":1501,"o":"m 1264 0 l 1124 244 l 392 244 l 251 0 l 14 0 l 572 972 l 943 972 l 1501 0 l 1264 0 m 501 436 l 1014 436 l 758 882 l 501 436 z "},"Ą":{"ha":1515,"x_min":14,"x_max":1501,"o":"m 1264 0 l 1124 244 l 392 244 l 251 0 l 14 0 l 572 972 l 943 972 l 1501 0 l 1264 0 m 501 436 l 1014 436 l 758 882 l 501 436 z "},"B":{"ha":1304,"x_min":104,"x_max":1260,"o":"m 104 0 l 104 972 l 815 972 q 1046 896 956 972 q 1135 708 1136 819 q 1110 603 1135 654 q 1047 526 1085 551 q 1203 447 1146 508 q 1260 286 1260 386 q 1180 81 1260 163 q 947 0 1100 0 l 104 0 m 825 775 l 324 775 l 324 586 l 825 586 q 903 613 875 586 q 932 682 932 640 q 904 749 932 724 q 825 775 876 775 m 942 401 l 324 401 l 324 197 l 942 197 q 1022 225 990 197 q 1054 300 1054 253 q 1022 374 1054 347 q 942 401 990 401 z "},"C":{"ha":1547,"x_min":69,"x_max":1478,"o":"m 775 175 q 1260 389 1207 175 l 1476 389 q 775 -18 1431 -18 q 69 456 69 -18 l 69 526 q 775 1000 69 1000 q 1478 583 1438 1000 l 1263 583 q 775 807 1217 807 q 282 526 282 807 l 282 456 q 775 175 282 175 z "},"Ç":{"ha":1547,"x_min":69,"x_max":1478,"o":"m 775 175 q 1260 389 1207 175 l 1476 389 q 775 -18 1431 -18 q 69 456 69 -18 l 69 526 q 775 1000 69 1000 q 1478 583 1438 1000 l 1263 583 q 775 807 1217 807 q 282 526 282 807 l 282 456 q 775 175 282 175 z "},"Ć":{"ha":1547,"x_min":69,"x_max":1478,"o":"m 775 175 q 1260 389 1207 175 l 1476 389 q 775 -18 1431 -18 q 69 456 69 -18 l 69 526 q 775 1000 69 1000 q 1478 583 1438 1000 l 1263 583 q 775 807 1217 807 q 282 526 282 807 l 282 456 q 775 175 282 175 z "},"Ĉ":{"ha":1547,"x_min":69,"x_max":1478,"o":"m 775 175 q 1260 389 1207 175 l 1476 389 q 775 -18 1431 -18 q 69 456 69 -18 l 69 526 q 775 1000 69 1000 q 1478 583 1438 1000 l 1263 583 q 775 807 1217 807 q 282 526 282 807 l 282 456 q 775 175 282 175 z "},"Ċ":{"ha":1547,"x_min":69,"x_max":1478,"o":"m 775 175 q 1260 389 1207 175 l 1476 389 q 775 -18 1431 -18 q 69 456 69 -18 l 69 526 q 775 1000 69 1000 q 1478 583 1438 1000 l 1263 583 q 775 807 1217 807 q 282 526 282 807 l 282 456 q 775 175 282 175 z "},"Č":{"ha":1547,"x_min":69,"x_max":1478,"o":"m 775 175 q 1260 389 1207 175 l 1476 389 q 775 -18 1431 -18 q 69 456 69 -18 l 69 526 q 775 1000 69 1000 q 1478 583 1438 1000 l 1263 583 q 775 807 1217 807 q 282 526 282 807 l 282 456 q 775 175 282 175 z "},"D":{"ha":1435,"x_min":104,"x_max":1365,"o":"m 104 0 l 104 972 l 692 972 q 1197 864 1028 972 q 1365 507 1365 756 l 1365 465 q 1197 108 1365 217 q 692 0 1028 0 l 104 0 m 692 775 l 324 775 l 324 197 l 692 197 q 870 207 796 197 q 1013 244 944 217 q 1117 326 1082 271 q 1153 465 1153 382 l 1153 507 q 1117 646 1153 590 q 1013 728 1082 701 q 870 765 944 756 q 692 775 796 775 z "},"Ð":{"ha":1435,"x_min":104,"x_max":1365,"o":"m 104 0 l 104 972 l 692 972 q 1197 864 1028 972 q 1365 507 1365 756 l 1365 465 q 1197 108 1365 217 q 692 0 1028 0 l 104 0 m 692 775 l 324 775 l 324 197 l 692 197 q 870 207 796 197 q 1013 244 944 217 q 1117 326 1082 271 q 1153 465 1153 382 l 1153 507 q 1117 646 1153 590 q 1013 728 1082 701 q 870 765 944 756 q 692 775 796 775 z "},"Ď":{"ha":1435,"x_min":104,"x_max":1365,"o":"m 104 0 l 104 972 l 692 972 q 1197 864 1028 972 q 1365 507 1365 756 l 1365 465 q 1197 108 1365 217 q 692 0 1028 0 l 104 0 m 692 775 l 324 775 l 324 197 l 692 197 q 870 207 796 197 q 1013 244 944 217 q 1117 326 1082 271 q 1153 465 1153 382 l 1153 507 q 1117 646 1153 590 q 1013 728 1082 701 q 870 765 944 756 q 692 775 796 775 z "},"Đ":{"ha":1435,"x_min":104,"x_max":1365,"o":"m 104 0 l 104 972 l 692 972 q 1197 864 1028 972 q 1365 507 1365 756 l 1365 465 q 1197 108 1365 217 q 692 0 1028 0 l 104 0 m 692 775 l 324 775 l 324 197 l 692 197 q 870 207 796 197 q 1013 244 944 217 q 1117 326 1082 271 q 1153 465 1153 382 l 1153 507 q 1117 646 1153 590 q 1013 728 1082 701 q 870 765 944 756 q 692 775 796 775 z "},"E":{"ha":1279,"x_min":104,"x_max":1203,"o":"m 104 0 l 104 972 l 1203 972 l 1203 775 l 324 775 l 324 590 l 975 590 l 975 397 l 324 397 l 324 197 l 1203 197 l 1203 0 l 104 0 z "},"È":{"ha":1279,"x_min":104,"x_max":1203,"o":"m 104 0 l 104 972 l 1203 972 l 1203 775 l 324 775 l 324 590 l 975 590 l 975 397 l 324 397 l 324 197 l 1203 197 l 1203 0 l 104 0 z "},"É":{"ha":1279,"x_min":104,"x_max":1203,"o":"m 104 0 l 104 972 l 1203 972 l 1203 775 l 324 775 l 324 590 l 975 590 l 975 397 l 324 397 l 324 197 l 1203 197 l 1203 0 l 104 0 z "},"Ê":{"ha":1279,"x_min":104,"x_max":1203,"o":"m 104 0 l 104 972 l 1203 972 l 1203 775 l 324 775 l 324 590 l 975 590 l 975 397 l 324 397 l 324 197 l 1203 197 l 1203 0 l 104 0 z "},"Ë":{"ha":1279,"x_min":104,"x_max":1203,"o":"m 104 0 l 104 972 l 1203 972 l 1203 775 l 324 775 l 324 590 l 975 590 l 975 397 l 324 397 l 324 197 l 1203 197 l 1203 0 l 104 0 z "},"Ē":{"ha":1279,"x_min":104,"x_max":1203,"o":"m 104 0 l 104 972 l 1203 972 l 1203 775 l 324 775 l 324 590 l 975 590 l 975 397 l 324 397 l 324 197 l 1203 197 l 1203 0 l 104 0 z "},"Ĕ":{"ha":1279,"x_min":104,"x_max":1203,"o":"m 104 0 l 104 972 l 1203 972 l 1203 775 l 324 775 l 324 590 l 975 590 l 975 397 l 324 397 l 324 197 l 1203 197 l 1203 0 l 104 0 z "},"Ė":{"ha":1279,"x_min":104,"x_max":1203,"o":"m 104 0 l 104 972 l 1203 972 l 1203 775 l 324 775 l 324 590 l 975 590 l 975 397 l 324 397 l 324 197 l 1203 197 l 1203 0 l 104 0 z "},"Ę":{"ha":1279,"x_min":104,"x_max":1203,"o":"m 104 0 l 104 972 l 1203 972 l 1203 775 l 324 775 l 324 590 l 975 590 l 975 397 l 324 397 l 324 197 l 1203 197 l 1203 0 l 104 0 z "},"Ě":{"ha":1279,"x_min":104,"x_max":1203,"o":"m 104 0 l 104 972 l 1203 972 l 1203 775 l 324 775 l 324 590 l 975 590 l 975 397 l 324 397 l 324 197 l 1203 197 l 1203 0 l 104 0 z "},"F":{"ha":1242,"x_min":104,"x_max":1203,"o":"m 104 0 l 104 972 l 1203 972 l 1203 775 l 324 775 l 324 590 l 975 590 l 975 397 l 324 397 l 324 0 l 104 0 z "},"G":{"ha":1550,"x_min":69,"x_max":1481,"o":"m 775 175 q 1263 397 1215 175 l 525 397 l 525 590 l 1481 590 l 1481 456 q 775 -18 1481 -18 q 69 456 69 -18 l 69 526 q 775 1000 69 1000 q 1456 689 1349 1000 l 1208 689 q 775 807 1099 807 q 282 526 282 807 l 282 456 q 775 175 282 175 z "},"Ĝ":{"ha":1550,"x_min":69,"x_max":1481,"o":"m 775 175 q 1263 397 1215 175 l 525 397 l 525 590 l 1481 590 l 1481 456 q 775 -18 1481 -18 q 69 456 69 -18 l 69 526 q 775 1000 69 1000 q 1456 689 1349 1000 l 1208 689 q 775 807 1099 807 q 282 526 282 807 l 282 456 q 775 175 282 175 z "},"Ğ":{"ha":1550,"x_min":69,"x_max":1481,"o":"m 775 175 q 1263 397 1215 175 l 525 397 l 525 590 l 1481 590 l 1481 456 q 775 -18 1481 -18 q 69 456 69 -18 l 69 526 q 775 1000 69 1000 q 1456 689 1349 1000 l 1208 689 q 775 807 1099 807 q 282 526 282 807 l 282 456 q 775 175 282 175 z "},"Ġ":{"ha":1550,"x_min":69,"x_max":1481,"o":"m 775 175 q 1263 397 1215 175 l 525 397 l 525 590 l 1481 590 l 1481 456 q 775 -18 1481 -18 q 69 456 69 -18 l 69 526 q 775 1000 69 1000 q 1456 689 1349 1000 l 1208 689 q 775 807 1099 807 q 282 526 282 807 l 282 456 q 775 175 282 175 z "},"Ģ":{"ha":1550,"x_min":69,"x_max":1481,"o":"m 775 175 q 1263 397 1215 175 l 525 397 l 525 590 l 1481 590 l 1481 456 q 775 -18 1481 -18 q 69 456 69 -18 l 69 526 q 775 1000 69 1000 q 1456 689 1349 1000 l 1208 689 q 775 807 1099 807 q 282 526 282 807 l 282 456 q 775 175 282 175 z "},"H":{"ha":1535,"x_min":104,"x_max":1431,"o":"m 1211 0 l 1211 393 l 324 393 l 324 0 l 104 0 l 104 972 l 324 972 l 324 594 l 1211 594 l 1211 972 l 1431 972 l 1431 0 l 1211 0 z "},"Ĥ":{"ha":1535,"x_min":104,"x_max":1431,"o":"m 1211 0 l 1211 393 l 324 393 l 324 0 l 104 0 l 104 972 l 324 972 l 324 594 l 1211 594 l 1211 972 l 1431 972 l 1431 0 l 1211 0 z "},"Ħ":{"ha":1535,"x_min":104,"x_max":1431,"o":"m 1211 0 l 1211 393 l 324 393 l 324 0 l 104 0 l 104 972 l 324 972 l 324 594 l 1211 594 l 1211 972 l 1431 972 l 1431 0 l 1211 0 z "},"I":{"ha":1142,"x_min":83,"x_max":1058,"o":"m 83 775 l 83 972 l 1058 972 l 1058 775 l 681 775 l 681 197 l 1058 197 l 1058 0 l 83 0 l 83 197 l 461 197 l 461 775 l 83 775 z "},"Ì":{"ha":1142,"x_min":83,"x_max":1058,"o":"m 83 775 l 83 972 l 1058 972 l 1058 775 l 681 775 l 681 197 l 1058 197 l 1058 0 l 83 0 l 83 197 l 461 197 l 461 775 l 83 775 z "},"Í":{"ha":1142,"x_min":83,"x_max":1058,"o":"m 83 775 l 83 972 l 1058 972 l 1058 775 l 681 775 l 681 197 l 1058 197 l 1058 0 l 83 0 l 83 197 l 461 197 l 461 775 l 83 775 z "},"Î":{"ha":1142,"x_min":83,"x_max":1058,"o":"m 83 775 l 83 972 l 1058 972 l 1058 775 l 681 775 l 681 197 l 1058 197 l 1058 0 l 83 0 l 83 197 l 461 197 l 461 775 l 83 775 z "},"Ï":{"ha":1142,"x_min":83,"x_max":1058,"o":"m 83 775 l 83 972 l 1058 972 l 1058 775 l 681 775 l 681 197 l 1058 197 l 1058 0 l 83 0 l 83 197 l 461 197 l 461 775 l 83 775 z "},"Ĩ":{"ha":1142,"x_min":83,"x_max":1058,"o":"m 83 775 l 83 972 l 1058 972 l 1058 775 l 681 775 l 681 197 l 1058 197 l 1058 0 l 83 0 l 83 197 l 461 197 l 461 775 l 83 775 z "},"Ī":{"ha":1142,"x_min":83,"x_max":1058,"o":"m 83 775 l 83 972 l 1058 972 l 1058 775 l 681 775 l 681 197 l 1058 197 l 1058 0 l 83 0 l 83 197 l 461 197 l 461 775 l 83 775 z "},"Ĭ":{"ha":1142,"x_min":83,"x_max":1058,"o":"m 83 775 l 83 972 l 1058 972 l 1058 775 l 681 775 l 681 197 l 1058 197 l 1058 0 l 83 0 l 83 197 l 461 197 l 461 775 l 83 775 z "},"Į":{"ha":1142,"x_min":83,"x_max":1058,"o":"m 83 775 l 83 972 l 1058 972 l 1058 775 l 681 775 l 681 197 l 1058 197 l 1058 0 l 83 0 l 83 197 l 461 197 l 461 775 l 83 775 z "},"İ":{"ha":1142,"x_min":83,"x_max":1058,"o":"m 83 775 l 83 972 l 1058 972 l 1058 775 l 681 775 l 681 197 l 1058 197 l 1058 0 l 83 0 l 83 197 l 461 197 l 461 775 l 83 775 z "},"Ị":{"ha":1142,"x_min":83,"x_max":1058,"o":"m 83 775 l 83 972 l 1058 972 l 1058 775 l 681 775 l 681 197 l 1058 197 l 1058 0 l 83 0 l 83 197 l 461 197 l 461 775 l 83 775 z "},"J":{"ha":1399,"x_min":14,"x_max":1304,"o":"m 482 775 l 482 972 l 1304 972 l 1304 478 q 656 -18 1300 -18 q 14 389 76 -18 l 235 389 q 296 276 253 321 q 403 213 339 232 q 525 186 468 193 q 657 179 582 179 q 755 183 711 179 q 851 196 799 186 q 943 226 904 206 q 1015 278 982 247 q 1067 360 1049 310 q 1085 475 1085 410 l 1085 775 l 482 775 z "},"Ĵ":{"ha":1399,"x_min":14,"x_max":1304,"o":"m 482 775 l 482 972 l 1304 972 l 1304 478 q 656 -18 1300 -18 q 14 389 76 -18 l 235 389 q 296 276 253 321 q 403 213 339 232 q 525 186 468 193 q 657 179 582 179 q 755 183 711 179 q 851 196 799 186 q 943 226 904 206 q 1015 278 982 247 q 1067 360 1049 310 q 1085 475 1085 410 l 1085 775 l 482 775 z "},"K":{"ha":1413,"x_min":104,"x_max":1454,"o":"m 969 0 l 629 510 l 324 339 l 324 0 l 104 0 l 104 972 l 324 972 l 324 560 l 1060 972 l 1454 972 l 815 614 l 1225 0 l 969 0 z "},"Ķ":{"ha":1413,"x_min":104,"x_max":1454,"o":"m 969 0 l 629 510 l 324 339 l 324 0 l 104 0 l 104 972 l 324 972 l 324 560 l 1060 972 l 1454 972 l 815 614 l 1225 0 l 969 0 z "},"L":{"ha":1168,"x_min":104,"x_max":1106,"o":"m 1106 197 l 1106 0 l 104 0 l 104 972 l 324 972 l 324 197 l 1106 197 z "},"Ĺ":{"ha":1168,"x_min":104,"x_max":1106,"o":"m 1106 197 l 1106 0 l 104 0 l 104 972 l 324 972 l 324 197 l 1106 197 z "},"Ļ":{"ha":1168,"x_min":104,"x_max":1106,"o":"m 1106 197 l 1106 0 l 104 0 l 104 972 l 324 972 l 324 197 l 1106 197 z "},"Ľ":{"ha":1168,"x_min":104,"x_max":1106,"o":"m 1106 197 l 1106 0 l 104 0 l 104 972 l 324 972 l 324 197 l 1106 197 z "},"Ŀ":{"ha":1168,"x_min":104,"x_max":1106,"o":"m 1106 197 l 1106 0 l 104 0 l 104 972 l 324 972 l 324 197 l 1106 197 z "},"Ł":{"ha":1168,"x_min":104,"x_max":1106,"o":"m 1106 197 l 1106 0 l 104 0 l 104 972 l 324 972 l 324 197 l 1106 197 z "},"M":{"ha":1711,"x_min":104,"x_max":1607,"o":"m 400 972 l 856 257 l 1311 972 l 1607 972 l 1607 0 l 1388 0 l 1388 703 l 1050 172 l 661 172 l 324 703 l 324 0 l 104 0 l 104 972 l 400 972 z "},"N":{"ha":1479,"x_min":104,"x_max":1375,"o":"m 1375 972 l 1375 0 l 1150 0 l 324 710 l 324 0 l 104 0 l 104 972 l 329 972 l 1156 261 l 1156 972 l 1375 972 z "},"Ñ":{"ha":1479,"x_min":104,"x_max":1375,"o":"m 1375 972 l 1375 0 l 1150 0 l 324 710 l 324 0 l 104 0 l 104 972 l 329 972 l 1156 261 l 1156 972 l 1375 972 z "},"Ń":{"ha":1479,"x_min":104,"x_max":1375,"o":"m 1375 972 l 1375 0 l 1150 0 l 324 710 l 324 0 l 104 0 l 104 972 l 329 972 l 1156 261 l 1156 972 l 1375 972 z "},"Ņ":{"ha":1479,"x_min":104,"x_max":1375,"o":"m 1375 972 l 1375 0 l 1150 0 l 324 710 l 324 0 l 104 0 l 104 972 l 329 972 l 1156 261 l 1156 972 l 1375 972 z "},"Ň":{"ha":1479,"x_min":104,"x_max":1375,"o":"m 1375 972 l 1375 0 l 1150 0 l 324 710 l 324 0 l 104 0 l 104 972 l 329 972 l 1156 261 l 1156 972 l 1375 972 z "},"Ŋ":{"ha":1479,"x_min":104,"x_max":1375,"o":"m 1375 972 l 1375 0 l 1150 0 l 324 710 l 324 0 l 104 0 l 104 972 l 329 972 l 1156 261 l 1156 972 l 1375 972 z "},"O":{"ha":1550,"x_min":69,"x_max":1481,"o":"m 69 526 q 775 1000 69 1000 q 1481 526 1481 1000 l 1481 456 q 775 -18 1481 -18 q 69 456 69 -18 l 69 526 m 1268 526 q 775 807 1268 807 q 282 526 282 807 l 282 456 q 775 175 282 175 q 1268 456 1268 175 l 1268 526 z "},"Ò":{"ha":1550,"x_min":69,"x_max":1481,"o":"m 69 526 q 775 1000 69 1000 q 1481 526 1481 1000 l 1481 456 q 775 -18 1481 -18 q 69 456 69 -18 l 69 526 m 1268 526 q 775 807 1268 807 q 282 526 282 807 l 282 456 q 775 175 282 175 q 1268 456 1268 175 l 1268 526 z "},"Ó":{"ha":1550,"x_min":69,"x_max":1481,"o":"m 69 526 q 775 1000 69 1000 q 1481 526 1481 1000 l 1481 456 q 775 -18 1481 -18 q 69 456 69 -18 l 69 526 m 1268 526 q 775 807 1268 807 q 282 526 282 807 l 282 456 q 775 175 282 175 q 1268 456 1268 175 l 1268 526 z "},"Ô":{"ha":1550,"x_min":69,"x_max":1481,"o":"m 69 526 q 775 1000 69 1000 q 1481 526 1481 1000 l 1481 456 q 775 -18 1481 -18 q 69 456 69 -18 l 69 526 m 1268 526 q 775 807 1268 807 q 282 526 282 807 l 282 456 q 775 175 282 175 q 1268 456 1268 175 l 1268 526 z "},"Õ":{"ha":1550,"x_min":69,"x_max":1481,"o":"m 69 526 q 775 1000 69 1000 q 1481 526 1481 1000 l 1481 456 q 775 -18 1481 -18 q 69 456 69 -18 l 69 526 m 1268 526 q 775 807 1268 807 q 282 526 282 807 l 282 456 q 775 175 282 175 q 1268 456 1268 175 l 1268 526 z "},"Ö":{"ha":1550,"x_min":69,"x_max":1481,"o":"m 69 526 q 775 1000 69 1000 q 1481 526 1481 1000 l 1481 456 q 775 -18 1481 -18 q 69 456 69 -18 l 69 526 m 1268 526 q 775 807 1268 807 q 282 526 282 807 l 282 456 q 775 175 282 175 q 1268 456 1268 175 l 1268 526 z "},"Ø":{"ha":1550,"x_min":69,"x_max":1481,"o":"m 69 526 q 775 1000 69 1000 q 1481 526 1481 1000 l 1481 456 q 775 -18 1481 -18 q 69 456 69 -18 l 69 526 m 1268 526 q 775 807 1268 807 q 282 526 282 807 l 282 456 q 775 175 282 175 q 1268 456 1268 175 l 1268 526 z "},"Ō":{"ha":1550,"x_min":69,"x_max":1481,"o":"m 69 526 q 775 1000 69 1000 q 1481 526 1481 1000 l 1481 456 q 775 -18 1481 -18 q 69 456 69 -18 l 69 526 m 1268 526 q 775 807 1268 807 q 282 526 282 807 l 282 456 q 775 175 282 175 q 1268 456 1268 175 l 1268 526 z "},"Ŏ":{"ha":1550,"x_min":69,"x_max":1481,"o":"m 69 526 q 775 1000 69 1000 q 1481 526 1481 1000 l 1481 456 q 775 -18 1481 -18 q 69 456 69 -18 l 69 526 m 1268 526 q 775 807 1268 807 q 282 526 282 807 l 282 456 q 775 175 282 175 q 1268 456 1268 175 l 1268 526 z "},"Ő":{"ha":1550,"x_min":69,"x_max":1481,"o":"m 69 526 q 775 1000 69 1000 q 1481 526 1481 1000 l 1481 456 q 775 -18 1481 -18 q 69 456 69 -18 l 69 526 m 1268 526 q 775 807 1268 807 q 282 526 282 807 l 282 456 q 775 175 282 175 q 1268 456 1268 175 l 1268 526 z "},"Œ":{"ha":1550,"x_min":69,"x_max":1481,"o":"m 69 526 q 775 1000 69 1000 q 1481 526 1481 1000 l 1481 456 q 775 -18 1481 -18 q 69 456 69 -18 l 69 526 m 1268 526 q 775 807 1268 807 q 282 526 282 807 l 282 456 q 775 175 282 175 q 1268 456 1268 175 l 1268 526 z "},"Ọ":{"ha":1550,"x_min":69,"x_max":1481,"o":"m 69 526 q 775 1000 69 1000 q 1481 526 1481 1000 l 1481 456 q 775 -18 1481 -18 q 69 456 69 -18 l 69 526 m 1268 526 q 775 807 1268 807 q 282 526 282 807 l 282 456 q 775 175 282 175 q 1268 456 1268 175 l 1268 526 z "},"P":{"ha":1325,"x_min":104,"x_max":1276,"o":"m 104 0 l 104 972 l 890 972 q 1172 876 1068 972 q 1276 625 1276 781 q 1172 374 1276 469 q 890 278 1068 278 l 324 278 l 324 0 l 104 0 m 875 775 l 324 775 l 324 475 l 875 475 q 1012 515 964 475 q 1060 625 1060 556 q 1012 735 1060 694 q 875 775 964 775 z "},"Þ":{"ha":1325,"x_min":104,"x_max":1276,"o":"m 104 0 l 104 972 l 890 972 q 1172 876 1068 972 q 1276 625 1276 781 q 1172 374 1276 469 q 890 278 1068 278 l 324 278 l 324 0 l 104 0 m 875 775 l 324 775 l 324 475 l 875 475 q 1012 515 964 475 q 1060 625 1060 556 q 1012 735 1060 694 q 875 775 964 775 z "},"Q":{"ha":1550,"x_min":69,"x_max":1481,"o":"m 1236 0 l 1200 46 q 775 -18 1036 -18 q 69 456 69 -18 l 69 526 q 775 1000 69 1000 q 1481 526 1481 1000 l 1481 456 q 1363 146 1481 261 l 1479 0 l 1236 0 m 1268 526 q 836 806 1268 790 l 1228 315 q 1268 456 1268 375 l 1268 526 m 282 456 q 775 175 282 175 q 1068 211 958 175 l 600 797 q 282 526 282 754 l 282 456 z "},"R":{"ha":1599,"x_min":104,"x_max":1654,"o":"m 104 0 l 104 972 l 1081 972 q 1332 896 1240 972 q 1424 686 1424 819 q 1337 484 1424 549 q 1081 406 1250 419 l 824 382 l 1654 0 l 1215 0 l 457 350 l 324 338 l 324 0 l 104 0 m 1094 775 l 324 775 l 324 522 l 1094 592 q 1207 686 1207 601 q 1094 775 1207 775 z "},"Ŕ":{"ha":1599,"x_min":104,"x_max":1654,"o":"m 104 0 l 104 972 l 1081 972 q 1332 896 1240 972 q 1424 686 1424 819 q 1337 484 1424 549 q 1081 406 1250 419 l 824 382 l 1654 0 l 1215 0 l 457 350 l 324 338 l 324 0 l 104 0 m 1094 775 l 324 775 l 324 522 l 1094 592 q 1207 686 1207 601 q 1094 775 1207 775 z "},"Ŗ":{"ha":1599,"x_min":104,"x_max":1654,"o":"m 104 0 l 104 972 l 1081 972 q 1332 896 1240 972 q 1424 686 1424 819 q 1337 484 1424 549 q 1081 406 1250 419 l 824 382 l 1654 0 l 1215 0 l 457 350 l 324 338 l 324 0 l 104 0 m 1094 775 l 324 775 l 324 522 l 1094 592 q 1207 686 1207 601 q 1094 775 1207 775 z "},"Ř":{"ha":1599,"x_min":104,"x_max":1654,"o":"m 104 0 l 104 972 l 1081 972 q 1332 896 1240 972 q 1424 686 1424 819 q 1337 484 1424 549 q 1081 406 1250 419 l 824 382 l 1654 0 l 1215 0 l 457 350 l 324 338 l 324 0 l 104 0 m 1094 775 l 324 775 l 324 522 l 1094 592 q 1207 686 1207 601 q 1094 775 1207 775 z "},"S":{"ha":1346,"x_min":53,"x_max":1304,"o":"m 468 450 q 192 545 293 476 q 90 722 90 614 l 90 760 q 165 924 90 875 q 390 972 240 972 l 811 972 l 1007 775 l 297 775 q 367 686 297 719 q 582 631 438 653 l 1001 567 q 1304 321 1304 521 l 1304 261 q 1155 53 1304 125 q 722 -18 1006 -18 q 385 23 531 -18 q 149 158 240 64 q 53 389 57 251 l 267 389 q 721 179 306 179 q 1090 276 1090 181 l 1090 296 q 1057 349 1090 332 q 946 378 1024 365 l 468 450 z "},"Ś":{"ha":1346,"x_min":53,"x_max":1304,"o":"m 468 450 q 192 545 293 476 q 90 722 90 614 l 90 760 q 165 924 90 875 q 390 972 240 972 l 811 972 l 1007 775 l 297 775 q 367 686 297 719 q 582 631 438 653 l 1001 567 q 1304 321 1304 521 l 1304 261 q 1155 53 1304 125 q 722 -18 1006 -18 q 385 23 531 -18 q 149 158 240 64 q 53 389 57 251 l 267 389 q 721 179 306 179 q 1090 276 1090 181 l 1090 296 q 1057 349 1090 332 q 946 378 1024 365 l 468 450 z "},"Ŝ":{"ha":1346,"x_min":53,"x_max":1304,"o":"m 468 450 q 192 545 293 476 q 90 722 90 614 l 90 760 q 165 924 90 875 q 390 972 240 972 l 811 972 l 1007 775 l 297 775 q 367 686 297 719 q 582 631 438 653 l 1001 567 q 1304 321 1304 521 l 1304 261 q 1155 53 1304 125 q 722 -18 1006 -18 q 385 23 531 -18 q 149 158 240 64 q 53 389 57 251 l 267 389 q 721 179 306 179 q 1090 276 1090 181 l 1090 296 q 1057 349 1090 332 q 946 378 1024 365 l 468 450 z "},"Ş":{"ha":1346,"x_min":53,"x_max":1304,"o":"m 468 450 q 192 545 293 476 q 90 722 90 614 l 90 760 q 165 924 90 875 q 390 972 240 972 l 811 972 l 1007 775 l 297 775 q 367 686 297 719 q 582 631 438 653 l 1001 567 q 1304 321 1304 521 l 1304 261 q 1155 53 1304 125 q 722 -18 1006 -18 q 385 23 531 -18 q 149 158 240 64 q 53 389 57 251 l 267 389 q 721 179 306 179 q 1090 276 1090 181 l 1090 296 q 1057 349 1090 332 q 946 378 1024 365 l 468 450 z "},"Š":{"ha":1346,"x_min":53,"x_max":1304,"o":"m 468 450 q 192 545 293 476 q 90 722 90 614 l 90 760 q 165 924 90 875 q 390 972 240 972 l 811 972 l 1007 775 l 297 775 q 367 686 297 719 q 582 631 438 653 l 1001 567 q 1304 321 1304 521 l 1304 261 q 1155 53 1304 125 q 722 -18 1006 -18 q 385 23 531 -18 q 149 158 240 64 q 53 389 57 251 l 267 389 q 721 179 306 179 q 1090 276 1090 181 l 1090 296 q 1057 349 1090 332 q 946 378 1024 365 l 468 450 z "},"Ș":{"ha":1346,"x_min":53,"x_max":1304,"o":"m 468 450 q 192 545 293 476 q 90 722 90 614 l 90 760 q 165 924 90 875 q 390 972 240 972 l 811 972 l 1007 775 l 297 775 q 367 686 297 719 q 582 631 438 653 l 1001 567 q 1304 321 1304 521 l 1304 261 q 1155 53 1304 125 q 722 -18 1006 -18 q 385 23 531 -18 q 149 158 240 64 q 53 389 57 251 l 267 389 q 721 179 306 179 q 1090 276 1090 181 l 1090 296 q 1057 349 1090 332 q 946 378 1024 365 l 468 450 z "},"T":{"ha":1378,"x_min":49,"x_max":1329,"o":"m 49 775 l 49 972 l 1329 972 l 1329 775 l 799 775 l 799 0 l 579 0 l 579 775 l 49 775 z "},"Ţ":{"ha":1378,"x_min":49,"x_max":1329,"o":"m 49 775 l 49 972 l 1329 972 l 1329 775 l 799 775 l 799 0 l 579 0 l 579 775 l 49 775 z "},"Ť":{"ha":1378,"x_min":49,"x_max":1329,"o":"m 49 775 l 49 972 l 1329 972 l 1329 775 l 799 775 l 799 0 l 579 0 l 579 775 l 49 775 z "},"Ŧ":{"ha":1378,"x_min":49,"x_max":1329,"o":"m 49 775 l 49 972 l 1329 972 l 1329 775 l 799 775 l 799 0 l 579 0 l 579 775 l 49 775 z "},"Ț":{"ha":1378,"x_min":49,"x_max":1329,"o":"m 49 775 l 49 972 l 1329 972 l 1329 775 l 799 775 l 799 0 l 579 0 l 579 775 l 49 775 z "},"U":{"ha":1486,"x_min":94,"x_max":1392,"o":"m 314 475 q 342 341 314 397 q 410 253 369 285 q 511 203 450 222 q 625 180 572 185 q 744 175 678 175 q 863 180 810 175 q 976 203 915 185 q 1078 253 1038 222 q 1145 341 1118 285 q 1172 475 1172 397 l 1172 972 l 1392 972 l 1392 478 q 743 -18 1392 -18 q 94 478 94 -18 l 94 972 l 314 972 l 314 475 z "},"Ù":{"ha":1486,"x_min":94,"x_max":1392,"o":"m 314 475 q 342 341 314 397 q 410 253 369 285 q 511 203 450 222 q 625 180 572 185 q 744 175 678 175 q 863 180 810 175 q 976 203 915 185 q 1078 253 1038 222 q 1145 341 1118 285 q 1172 475 1172 397 l 1172 972 l 1392 972 l 1392 478 q 743 -18 1392 -18 q 94 478 94 -18 l 94 972 l 314 972 l 314 475 z "},"Ú":{"ha":1486,"x_min":94,"x_max":1392,"o":"m 314 475 q 342 341 314 397 q 410 253 369 285 q 511 203 450 222 q 625 180 572 185 q 744 175 678 175 q 863 180 810 175 q 976 203 915 185 q 1078 253 1038 222 q 1145 341 1118 285 q 1172 475 1172 397 l 1172 972 l 1392 972 l 1392 478 q 743 -18 1392 -18 q 94 478 94 -18 l 94 972 l 314 972 l 314 475 z "},"Û":{"ha":1486,"x_min":94,"x_max":1392,"o":"m 314 475 q 342 341 314 397 q 410 253 369 285 q 511 203 450 222 q 625 180 572 185 q 744 175 678 175 q 863 180 810 175 q 976 203 915 185 q 1078 253 1038 222 q 1145 341 1118 285 q 1172 475 1172 397 l 1172 972 l 1392 972 l 1392 478 q 743 -18 1392 -18 q 94 478 94 -18 l 94 972 l 314 972 l 314 475 z "},"Ü":{"ha":1486,"x_min":94,"x_max":1392,"o":"m 314 475 q 342 341 314 397 q 410 253 369 285 q 511 203 450 222 q 625 180 572 185 q 744 175 678 175 q 863 180 810 175 q 976 203 915 185 q 1078 253 1038 222 q 1145 341 1118 285 q 1172 475 1172 397 l 1172 972 l 1392 972 l 1392 478 q 743 -18 1392 -18 q 94 478 94 -18 l 94 972 l 314 972 l 314 475 z "},"Ũ":{"ha":1486,"x_min":94,"x_max":1392,"o":"m 314 475 q 342 341 314 397 q 410 253 369 285 q 511 203 450 222 q 625 180 572 185 q 744 175 678 175 q 863 180 810 175 q 976 203 915 185 q 1078 253 1038 222 q 1145 341 1118 285 q 1172 475 1172 397 l 1172 972 l 1392 972 l 1392 478 q 743 -18 1392 -18 q 94 478 94 -18 l 94 972 l 314 972 l 314 475 z "},"Ū":{"ha":1486,"x_min":94,"x_max":1392,"o":"m 314 475 q 342 341 314 397 q 410 253 369 285 q 511 203 450 222 q 625 180 572 185 q 744 175 678 175 q 863 180 810 175 q 976 203 915 185 q 1078 253 1038 222 q 1145 341 1118 285 q 1172 475 1172 397 l 1172 972 l 1392 972 l 1392 478 q 743 -18 1392 -18 q 94 478 94 -18 l 94 972 l 314 972 l 314 475 z "},"Ŭ":{"ha":1486,"x_min":94,"x_max":1392,"o":"m 314 475 q 342 341 314 397 q 410 253 369 285 q 511 203 450 222 q 625 180 572 185 q 744 175 678 175 q 863 180 810 175 q 976 203 915 185 q 1078 253 1038 222 q 1145 341 1118 285 q 1172 475 1172 397 l 1172 972 l 1392 972 l 1392 478 q 743 -18 1392 -18 q 94 478 94 -18 l 94 972 l 314 972 l 314 475 z "},"Ů":{"ha":1486,"x_min":94,"x_max":1392,"o":"m 314 475 q 342 341 314 397 q 410 253 369 285 q 511 203 450 222 q 625 180 572 185 q 744 175 678 175 q 863 180 810 175 q 976 203 915 185 q 1078 253 1038 222 q 1145 341 1118 285 q 1172 475 1172 397 l 1172 972 l 1392 972 l 1392 478 q 743 -18 1392 -18 q 94 478 94 -18 l 94 972 l 314 972 l 314 475 z "},"Ű":{"ha":1486,"x_min":94,"x_max":1392,"o":"m 314 475 q 342 341 314 397 q 410 253 369 285 q 511 203 450 222 q 625 180 572 185 q 744 175 678 175 q 863 180 810 175 q 976 203 915 185 q 1078 253 1038 222 q 1145 341 1118 285 q 1172 475 1172 397 l 1172 972 l 1392 972 l 1392 478 q 743 -18 1392 -18 q 94 478 94 -18 l 94 972 l 314 972 l 314 475 z "},"Ų":{"ha":1486,"x_min":94,"x_max":1392,"o":"m 314 475 q 342 341 314 397 q 410 253 369 285 q 511 203 450 222 q 625 180 572 185 q 744 175 678 175 q 863 180 810 175 q 976 203 915 185 q 1078 253 1038 222 q 1145 341 1118 285 q 1172 475 1172 397 l 1172 972 l 1392 972 l 1392 478 q 743 -18 1392 -18 q 94 478 94 -18 l 94 972 l 314 972 l 314 475 z "},"Ụ":{"ha":1486,"x_min":94,"x_max":1392,"o":"m 314 475 q 342 341 314 397 q 410 253 369 285 q 511 203 450 222 q 625 180 572 185 q 744 175 678 175 q 863 180 810 175 q 976 203 915 185 q 1078 253 1038 222 q 1145 341 1118 285 q 1172 475 1172 397 l 1172 972 l 1392 972 l 1392 478 q 743 -18 1392 -18 q 94 478 94 -18 l 94 972 l 314 972 l 314 475 z "},"V":{"ha":1454,"x_min":14,"x_max":1440,"o":"m 1440 972 l 931 0 l 524 0 l 14 972 l 265 972 l 728 92 l 1189 972 l 1440 972 z "},"W":{"ha":1714,"x_min":58,"x_max":1656,"o":"m 1074 0 l 857 549 l 640 0 l 253 0 l 58 972 l 286 972 l 463 89 l 733 764 l 981 764 l 1251 89 l 1428 972 l 1656 972 l 1461 0 l 1074 0 z "},"Ŵ":{"ha":1714,"x_min":58,"x_max":1656,"o":"m 1074 0 l 857 549 l 640 0 l 253 0 l 58 972 l 286 972 l 463 89 l 733 764 l 981 764 l 1251 89 l 1428 972 l 1656 972 l 1461 0 l 1074 0 z "},"Ẁ":{"ha":1714,"x_min":58,"x_max":1656,"o":"m 1074 0 l 857 549 l 640 0 l 253 0 l 58 972 l 286 972 l 463 89 l 733 764 l 981 764 l 1251 89 l 1428 972 l 1656 972 l 1461 0 l 1074 0 z "},"Ẃ":{"ha":1714,"x_min":58,"x_max":1656,"o":"m 1074 0 l 857 549 l 640 0 l 253 0 l 58 972 l 286 972 l 463 89 l 733 764 l 981 764 l 1251 89 l 1428 972 l 1656 972 l 1461 0 l 1074 0 z "},"Ẅ":{"ha":1714,"x_min":58,"x_max":1656,"o":"m 1074 0 l 857 549 l 640 0 l 253 0 l 58 972 l 286 972 l 463 89 l 733 764 l 981 764 l 1251 89 l 1428 972 l 1656 972 l 1461 0 l 1074 0 z "},"X":{"ha":1540,"x_min":-7,"x_max":1547,"o":"m 1101 0 l 771 374 l 439 0 l 161 0 l 540 428 l -7 972 l 293 972 l 771 497 l 1247 972 l 1547 972 l 1000 428 l 1379 0 l 1101 0 z "},"Y":{"ha":1428,"x_min":-7,"x_max":1435,"o":"m 825 410 l 825 0 l 606 0 l 606 410 l -7 972 l 303 972 l 715 589 l 1126 972 l 1435 972 l 825 410 z "},"Ý":{"ha":1428,"x_min":-7,"x_max":1435,"o":"m 825 410 l 825 0 l 606 0 l 606 410 l -7 972 l 303 972 l 715 589 l 1126 972 l 1435 972 l 825 410 z "},"Ŷ":{"ha":1428,"x_min":-7,"x_max":1435,"o":"m 825 410 l 825 0 l 606 0 l 606 410 l -7 972 l 303 972 l 715 589 l 1126 972 l 1435 972 l 825 410 z "},"Ÿ":{"ha":1428,"x_min":-7,"x_max":1435,"o":"m 825 410 l 825 0 l 606 0 l 606 410 l -7 972 l 303 972 l 715 589 l 1126 972 l 1435 972 l 825 410 z "},"Ȳ":{"ha":1428,"x_min":-7,"x_max":1435,"o":"m 825 410 l 825 0 l 606 0 l 606 410 l -7 972 l 303 972 l 715 589 l 1126 972 l 1435 972 l 825 410 z "},"Ỳ":{"ha":1428,"x_min":-7,"x_max":1435,"o":"m 825 410 l 825 0 l 606 0 l 606 410 l -7 972 l 303 972 l 715 589 l 1126 972 l 1435 972 l 825 410 z "},"Z":{"ha":1376,"x_min":35,"x_max":1335,"o":"m 1335 197 l 1335 0 l 160 0 l 160 197 l 917 775 l 35 775 l 35 972 l 1229 972 l 1229 775 l 472 197 l 1335 197 z "},"Ź":{"ha":1376,"x_min":35,"x_max":1335,"o":"m 1335 197 l 1335 0 l 160 0 l 160 197 l 917 775 l 35 775 l 35 972 l 1229 972 l 1229 775 l 472 197 l 1335 197 z "},"Ż":{"ha":1376,"x_min":35,"x_max":1335,"o":"m 1335 197 l 1335 0 l 160 0 l 160 197 l 917 775 l 35 775 l 35 972 l 1229 972 l 1229 775 l 472 197 l 1335 197 z "},"Ž":{"ha":1376,"x_min":35,"x_max":1335,"o":"m 1335 197 l 1335 0 l 160 0 l 160 197 l 917 775 l 35 775 l 35 972 l 1229 972 l 1229 775 l 472 197 l 1335 197 z "},"a":{"ha":1110,"x_min":28,"x_max":1026,"o":"m 819 0 l 819 149 q 663 27 763 72 q 439 -18 564 -18 q 189 42 278 -18 q 100 222 100 103 l 100 257 q 432 475 100 475 l 806 475 q 715 563 782 542 q 524 583 649 583 l 28 583 l 203 764 l 565 764 q 925 668 824 764 q 1026 317 1026 572 l 1026 0 l 819 0 m 488 164 q 669 187 574 164 q 819 244 764 210 l 819 317 l 439 317 q 331 303 365 317 q 297 253 297 290 l 297 239 q 346 180 297 196 q 488 164 394 164 z "},"à":{"ha":1110,"x_min":28,"x_max":1026,"o":"m 819 0 l 819 149 q 663 27 763 72 q 439 -18 564 -18 q 189 42 278 -18 q 100 222 100 103 l 100 257 q 432 475 100 475 l 806 475 q 715 563 782 542 q 524 583 649 583 l 28 583 l 203 764 l 565 764 q 925 668 824 764 q 1026 317 1026 572 l 1026 0 l 819 0 m 488 164 q 669 187 574 164 q 819 244 764 210 l 819 317 l 439 317 q 331 303 365 317 q 297 253 297 290 l 297 239 q 346 180 297 196 q 488 164 394 164 z "},"á":{"ha":1110,"x_min":28,"x_max":1026,"o":"m 819 0 l 819 149 q 663 27 763 72 q 439 -18 564 -18 q 189 42 278 -18 q 100 222 100 103 l 100 257 q 432 475 100 475 l 806 475 q 715 563 782 542 q 524 583 649 583 l 28 583 l 203 764 l 565 764 q 925 668 824 764 q 1026 317 1026 572 l 1026 0 l 819 0 m 488 164 q 669 187 574 164 q 819 244 764 210 l 819 317 l 439 317 q 331 303 365 317 q 297 253 297 290 l 297 239 q 346 180 297 196 q 488 164 394 164 z "},"â":{"ha":1110,"x_min":28,"x_max":1026,"o":"m 819 0 l 819 149 q 663 27 763 72 q 439 -18 564 -18 q 189 42 278 -18 q 100 222 100 103 l 100 257 q 432 475 100 475 l 806 475 q 715 563 782 542 q 524 583 649 583 l 28 583 l 203 764 l 565 764 q 925 668 824 764 q 1026 317 1026 572 l 1026 0 l 819 0 m 488 164 q 669 187 574 164 q 819 244 764 210 l 819 317 l 439 317 q 331 303 365 317 q 297 253 297 290 l 297 239 q 346 180 297 196 q 488 164 394 164 z "},"ã":{"ha":1110,"x_min":28,"x_max":1026,"o":"m 819 0 l 819 149 q 663 27 763 72 q 439 -18 564 -18 q 189 42 278 -18 q 100 222 100 103 l 100 257 q 432 475 100 475 l 806 475 q 715 563 782 542 q 524 583 649 583 l 28 583 l 203 764 l 565 764 q 925 668 824 764 q 1026 317 1026 572 l 1026 0 l 819 0 m 488 164 q 669 187 574 164 q 819 244 764 210 l 819 317 l 439 317 q 331 303 365 317 q 297 253 297 290 l 297 239 q 346 180 297 196 q 488 164 394 164 z "},"ä":{"ha":1110,"x_min":28,"x_max":1026,"o":"m 819 0 l 819 149 q 663 27 763 72 q 439 -18 564 -18 q 189 42 278 -18 q 100 222 100 103 l 100 257 q 432 475 100 475 l 806 475 q 715 563 782 542 q 524 583 649 583 l 28 583 l 203 764 l 565 764 q 925 668 824 764 q 1026 317 1026 572 l 1026 0 l 819 0 m 488 164 q 669 187 574 164 q 819 244 764 210 l 819 317 l 439 317 q 331 303 365 317 q 297 253 297 290 l 297 239 q 346 180 297 196 q 488 164 394 164 z "},"å":{"ha":1110,"x_min":28,"x_max":1026,"o":"m 819 0 l 819 149 q 663 27 763 72 q 439 -18 564 -18 q 189 42 278 -18 q 100 222 100 103 l 100 257 q 432 475 100 475 l 806 475 q 715 563 782 542 q 524 583 649 583 l 28 583 l 203 764 l 565 764 q 925 668 824 764 q 1026 317 1026 572 l 1026 0 l 819 0 m 488 164 q 669 187 574 164 q 819 244 764 210 l 819 317 l 439 317 q 331 303 365 317 q 297 253 297 290 l 297 239 q 346 180 297 196 q 488 164 394 164 z "},"æ":{"ha":1110,"x_min":28,"x_max":1026,"o":"m 819 0 l 819 149 q 663 27 763 72 q 439 -18 564 -18 q 189 42 278 -18 q 100 222 100 103 l 100 257 q 432 475 100 475 l 806 475 q 715 563 782 542 q 524 583 649 583 l 28 583 l 203 764 l 565 764 q 925 668 824 764 q 1026 317 1026 572 l 1026 0 l 819 0 m 488 164 q 669 187 574 164 q 819 244 764 210 l 819 317 l 439 317 q 331 303 365 317 q 297 253 297 290 l 297 239 q 346 180 297 196 q 488 164 394 164 z "},"ā":{"ha":1110,"x_min":28,"x_max":1026,"o":"m 819 0 l 819 149 q 663 27 763 72 q 439 -18 564 -18 q 189 42 278 -18 q 100 222 100 103 l 100 257 q 432 475 100 475 l 806 475 q 715 563 782 542 q 524 583 649 583 l 28 583 l 203 764 l 565 764 q 925 668 824 764 q 1026 317 1026 572 l 1026 0 l 819 0 m 488 164 q 669 187 574 164 q 819 244 764 210 l 819 317 l 439 317 q 331 303 365 317 q 297 253 297 290 l 297 239 q 346 180 297 196 q 488 164 394 164 z "},"ă":{"ha":1110,"x_min":28,"x_max":1026,"o":"m 819 0 l 819 149 q 663 27 763 72 q 439 -18 564 -18 q 189 42 278 -18 q 100 222 100 103 l 100 257 q 432 475 100 475 l 806 475 q 715 563 782 542 q 524 583 649 583 l 28 583 l 203 764 l 565 764 q 925 668 824 764 q 1026 317 1026 572 l 1026 0 l 819 0 m 488 164 q 669 187 574 164 q 819 244 764 210 l 819 317 l 439 317 q 331 303 365 317 q 297 253 297 290 l 297 239 q 346 180 297 196 q 488 164 394 164 z "},"ą":{"ha":1110,"x_min":28,"x_max":1026,"o":"m 819 0 l 819 149 q 663 27 763 72 q 439 -18 564 -18 q 189 42 278 -18 q 100 222 100 103 l 100 257 q 432 475 100 475 l 806 475 q 715 563 782 542 q 524 583 649 583 l 28 583 l 203 764 l 565 764 q 925 668 824 764 q 1026 317 1026 572 l 1026 0 l 819 0 m 488 164 q 669 187 574 164 q 819 244 764 210 l 819 317 l 439 317 q 331 303 365 317 q 297 253 297 290 l 297 239 q 346 180 297 196 q 488 164 394 164 z "},"b":{"ha":1181,"x_min":111,"x_max":1118,"o":"m 1118 361 q 1008 86 1118 190 q 722 -18 897 -18 q 488 34 593 -18 q 318 164 382 86 l 318 0 l 111 0 l 111 1058 l 318 1058 l 318 603 q 488 733 382 681 q 722 785 593 785 q 1008 681 897 785 q 1118 406 1118 576 l 1118 361 m 640 593 q 468 567 557 593 q 318 506 379 542 l 318 261 q 468 199 379 225 q 640 174 557 174 q 844 221 767 174 q 922 361 922 268 l 922 406 q 844 546 922 499 q 640 593 767 593 z "},"c":{"ha":1167,"x_min":63,"x_max":1104,"o":"m 585 167 q 794 201 711 167 q 901 304 876 236 l 1103 304 q 947 64 1082 146 q 585 -18 811 -18 q 201 78 339 -18 q 63 361 63 175 l 63 406 q 201 688 63 592 q 585 785 339 785 q 948 702 813 785 q 1104 460 1083 619 l 903 460 q 796 565 879 529 q 585 600 713 600 q 346 551 433 600 q 258 406 258 501 l 258 361 q 346 216 258 265 q 585 167 433 167 z "},"ç":{"ha":1167,"x_min":63,"x_max":1104,"o":"m 585 167 q 794 201 711 167 q 901 304 876 236 l 1103 304 q 947 64 1082 146 q 585 -18 811 -18 q 201 78 339 -18 q 63 361 63 175 l 63 406 q 201 688 63 592 q 585 785 339 785 q 948 702 813 785 q 1104 460 1083 619 l 903 460 q 796 565 879 529 q 585 600 713 600 q 346 551 433 600 q 258 406 258 501 l 258 361 q 346 216 258 265 q 585 167 433 167 z "},"ć":{"ha":1167,"x_min":63,"x_max":1104,"o":"m 585 167 q 794 201 711 167 q 901 304 876 236 l 1103 304 q 947 64 1082 146 q 585 -18 811 -18 q 201 78 339 -18 q 63 361 63 175 l 63 406 q 201 688 63 592 q 585 785 339 785 q 948 702 813 785 q 1104 460 1083 619 l 903 460 q 796 565 879 529 q 585 600 713 600 q 346 551 433 600 q 258 406 258 501 l 258 361 q 346 216 258 265 q 585 167 433 167 z "},"ĉ":{"ha":1167,"x_min":63,"x_max":1104,"o":"m 585 167 q 794 201 711 167 q 901 304 876 236 l 1103 304 q 947 64 1082 146 q 585 -18 811 -18 q 201 78 339 -18 q 63 361 63 175 l 63 406 q 201 688 63 592 q 585 785 339 785 q 948 702 813 785 q 1104 460 1083 619 l 903 460 q 796 565 879 529 q 585 600 713 600 q 346 551 433 600 q 258 406 258 501 l 258 361 q 346 216 258 265 q 585 167 433 167 z "},"ċ":{"ha":1167,"x_min":63,"x_max":1104,"o":"m 585 167 q 794 201 711 167 q 901 304 876 236 l 1103 304 q 947 64 1082 146 q 585 -18 811 -18 q 201 78 339 -18 q 63 361 63 175 l 63 406 q 201 688 63 592 q 585 785 339 785 q 948 702 813 785 q 1104 460 1083 619 l 903 460 q 796 565 879 529 q 585 600 713 600 q 346 551 433 600 q 258 406 258 501 l 258 361 q 346 216 258 265 q 585 167 433 167 z "},"č":{"ha":1167,"x_min":63,"x_max":1104,"o":"m 585 167 q 794 201 711 167 q 901 304 876 236 l 1103 304 q 947 64 1082 146 q 585 -18 811 -18 q 201 78 339 -18 q 63 361 63 175 l 63 406 q 201 688 63 592 q 585 785 339 785 q 948 702 813 785 q 1104 460 1083 619 l 903 460 q 796 565 879 529 q 585 600 713 600 q 346 551 433 600 q 258 406 258 501 l 258 361 q 346 216 258 265 q 585 167 433 167 z "},"d":{"ha":1181,"x_min":63,"x_max":1069,"o":"m 863 0 l 863 164 q 693 34 799 86 q 458 -18 588 -18 q 173 86 283 -18 q 63 361 63 190 l 63 406 q 173 681 63 576 q 458 785 283 785 q 693 733 588 785 q 863 603 799 681 l 863 1058 l 1069 1058 l 1069 0 l 863 0 m 258 361 q 336 221 258 268 q 540 174 414 174 q 713 199 624 174 q 863 261 801 225 l 863 506 q 713 567 801 542 q 540 593 624 593 q 336 546 414 593 q 258 406 258 499 l 258 361 z "},"ð":{"ha":1181,"x_min":63,"x_max":1069,"o":"m 863 0 l 863 164 q 693 34 799 86 q 458 -18 588 -18 q 173 86 283 -18 q 63 361 63 190 l 63 406 q 173 681 63 576 q 458 785 283 785 q 693 733 588 785 q 863 603 799 681 l 863 1058 l 1069 1058 l 1069 0 l 863 0 m 258 361 q 336 221 258 268 q 540 174 414 174 q 713 199 624 174 q 863 261 801 225 l 863 506 q 713 567 801 542 q 540 593 624 593 q 336 546 414 593 q 258 406 258 499 l 258 361 z "},"ď":{"ha":1181,"x_min":63,"x_max":1069,"o":"m 863 0 l 863 164 q 693 34 799 86 q 458 -18 588 -18 q 173 86 283 -18 q 63 361 63 190 l 63 406 q 173 681 63 576 q 458 785 283 785 q 693 733 588 785 q 863 603 799 681 l 863 1058 l 1069 1058 l 1069 0 l 863 0 m 258 361 q 336 221 258 268 q 540 174 414 174 q 713 199 624 174 q 863 261 801 225 l 863 506 q 713 567 801 542 q 540 593 624 593 q 336 546 414 593 q 258 406 258 499 l 258 361 z "},"đ":{"ha":1181,"x_min":63,"x_max":1069,"o":"m 863 0 l 863 164 q 693 34 799 86 q 458 -18 588 -18 q 173 86 283 -18 q 63 361 63 190 l 63 406 q 173 681 63 576 q 458 785 283 785 q 693 733 588 785 q 863 603 799 681 l 863 1058 l 1069 1058 l 1069 0 l 863 0 m 258 361 q 336 221 258 268 q 540 174 414 174 q 713 199 624 174 q 863 261 801 225 l 863 506 q 713 567 801 542 q 540 593 624 593 q 336 546 414 593 q 258 406 258 499 l 258 361 z "},"e":{"ha":1058,"x_min":63,"x_max":1017,"o":"m 554 785 q 894 686 772 785 q 1017 399 1017 588 l 1017 331 l 261 331 q 557 181 282 181 l 881 181 l 703 0 l 564 0 q 187 86 311 0 q 63 361 63 172 l 63 392 q 195 683 63 581 q 554 785 328 785 m 550 610 q 274 475 329 610 l 789 475 q 550 610 758 610 z "},"è":{"ha":1058,"x_min":63,"x_max":1017,"o":"m 554 785 q 894 686 772 785 q 1017 399 1017 588 l 1017 331 l 261 331 q 557 181 282 181 l 881 181 l 703 0 l 564 0 q 187 86 311 0 q 63 361 63 172 l 63 392 q 195 683 63 581 q 554 785 328 785 m 550 610 q 274 475 329 610 l 789 475 q 550 610 758 610 z "},"é":{"ha":1058,"x_min":63,"x_max":1017,"o":"m 554 785 q 894 686 772 785 q 1017 399 1017 588 l 1017 331 l 261 331 q 557 181 282 181 l 881 181 l 703 0 l 564 0 q 187 86 311 0 q 63 361 63 172 l 63 392 q 195 683 63 581 q 554 785 328 785 m 550 610 q 274 475 329 610 l 789 475 q 550 610 758 610 z "},"ê":{"ha":1058,"x_min":63,"x_max":1017,"o":"m 554 785 q 894 686 772 785 q 1017 399 1017 588 l 1017 331 l 261 331 q 557 181 282 181 l 881 181 l 703 0 l 564 0 q 187 86 311 0 q 63 361 63 172 l 63 392 q 195 683 63 581 q 554 785 328 785 m 550 610 q 274 475 329 610 l 789 475 q 550 610 758 610 z "},"ë":{"ha":1058,"x_min":63,"x_max":1017,"o":"m 554 785 q 894 686 772 785 q 1017 399 1017 588 l 1017 331 l 261 331 q 557 181 282 181 l 881 181 l 703 0 l 564 0 q 187 86 311 0 q 63 361 63 172 l 63 392 q 195 683 63 581 q 554 785 328 785 m 550 610 q 274 475 329 610 l 789 475 q 550 610 758 610 z "},"ē":{"ha":1058,"x_min":63,"x_max":1017,"o":"m 554 785 q 894 686 772 785 q 1017 399 1017 588 l 1017 331 l 261 331 q 557 181 282 181 l 881 181 l 703 0 l 564 0 q 187 86 311 0 q 63 361 63 172 l 63 392 q 195 683 63 581 q 554 785 328 785 m 550 610 q 274 475 329 610 l 789 475 q 550 610 758 610 z "},"ĕ":{"ha":1058,"x_min":63,"x_max":1017,"o":"m 554 785 q 894 686 772 785 q 1017 399 1017 588 l 1017 331 l 261 331 q 557 181 282 181 l 881 181 l 703 0 l 564 0 q 187 86 311 0 q 63 361 63 172 l 63 392 q 195 683 63 581 q 554 785 328 785 m 550 610 q 274 475 329 610 l 789 475 q 550 610 758 610 z "},"ė":{"ha":1058,"x_min":63,"x_max":1017,"o":"m 554 785 q 894 686 772 785 q 1017 399 1017 588 l 1017 331 l 261 331 q 557 181 282 181 l 881 181 l 703 0 l 564 0 q 187 86 311 0 q 63 361 63 172 l 63 392 q 195 683 63 581 q 554 785 328 785 m 550 610 q 274 475 329 610 l 789 475 q 550 610 758 610 z "},"ę":{"ha":1058,"x_min":63,"x_max":1017,"o":"m 554 785 q 894 686 772 785 q 1017 399 1017 588 l 1017 331 l 261 331 q 557 181 282 181 l 881 181 l 703 0 l 564 0 q 187 86 311 0 q 63 361 63 172 l 63 392 q 195 683 63 581 q 554 785 328 785 m 550 610 q 274 475 329 610 l 789 475 q 550 610 758 610 z "},"ě":{"ha":1058,"x_min":63,"x_max":1017,"o":"m 554 785 q 894 686 772 785 q 1017 399 1017 588 l 1017 331 l 261 331 q 557 181 282 181 l 881 181 l 703 0 l 564 0 q 187 86 311 0 q 63 361 63 172 l 63 392 q 195 683 63 581 q 554 785 328 785 m 550 610 q 274 475 329 610 l 789 475 q 550 610 758 610 z "},"f":{"ha":875,"x_min":42,"x_max":1000,"o":"m 42 583 l 42 764 l 193 764 q 288 978 193 897 q 551 1058 382 1058 l 785 1058 l 1000 838 l 618 886 q 400 764 400 886 l 794 764 l 794 583 l 400 583 l 400 0 l 193 0 l 193 583 l 42 583 z "},"g":{"ha":1153,"x_min":17,"x_max":1042,"o":"m 1042 96 q 903 -196 1042 -106 q 496 -286 765 -286 l 189 -286 l 17 -108 l 501 -108 q 745 -57 656 -108 q 835 96 835 -6 l 835 163 q 672 33 772 85 q 444 -18 572 -18 q 172 88 281 -18 q 63 361 63 194 l 63 406 q 172 678 63 572 q 444 785 281 785 q 672 733 572 785 q 835 604 772 682 l 835 764 l 1042 764 l 1042 96 m 258 361 q 335 223 258 272 q 526 174 413 174 q 692 199 608 174 q 835 261 776 224 l 835 506 q 692 568 776 543 q 526 593 608 593 q 335 544 413 593 q 258 406 258 494 l 258 361 z "},"ĝ":{"ha":1153,"x_min":17,"x_max":1042,"o":"m 1042 96 q 903 -196 1042 -106 q 496 -286 765 -286 l 189 -286 l 17 -108 l 501 -108 q 745 -57 656 -108 q 835 96 835 -6 l 835 163 q 672 33 772 85 q 444 -18 572 -18 q 172 88 281 -18 q 63 361 63 194 l 63 406 q 172 678 63 572 q 444 785 281 785 q 672 733 572 785 q 835 604 772 682 l 835 764 l 1042 764 l 1042 96 m 258 361 q 335 223 258 272 q 526 174 413 174 q 692 199 608 174 q 835 261 776 224 l 835 506 q 692 568 776 543 q 526 593 608 593 q 335 544 413 593 q 258 406 258 494 l 258 361 z "},"ğ":{"ha":1153,"x_min":17,"x_max":1042,"o":"m 1042 96 q 903 -196 1042 -106 q 496 -286 765 -286 l 189 -286 l 17 -108 l 501 -108 q 745 -57 656 -108 q 835 96 835 -6 l 835 163 q 672 33 772 85 q 444 -18 572 -18 q 172 88 281 -18 q 63 361 63 194 l 63 406 q 172 678 63 572 q 444 785 281 785 q 672 733 572 785 q 835 604 772 682 l 835 764 l 1042 764 l 1042 96 m 258 361 q 335 223 258 272 q 526 174 413 174 q 692 199 608 174 q 835 261 776 224 l 835 506 q 692 568 776 543 q 526 593 608 593 q 335 544 413 593 q 258 406 258 494 l 258 361 z "},"ġ":{"ha":1153,"x_min":17,"x_max":1042,"o":"m 1042 96 q 903 -196 1042 -106 q 496 -286 765 -286 l 189 -286 l 17 -108 l 501 -108 q 745 -57 656 -108 q 835 96 835 -6 l 835 163 q 672 33 772 85 q 444 -18 572 -18 q 172 88 281 -18 q 63 361 63 194 l 63 406 q 172 678 63 572 q 444 785 281 785 q 672 733 572 785 q 835 604 772 682 l 835 764 l 1042 764 l 1042 96 m 258 361 q 335 223 258 272 q 526 174 413 174 q 692 199 608 174 q 835 261 776 224 l 835 506 q 692 568 776 543 q 526 593 608 593 q 335 544 413 593 q 258 406 258 494 l 258 361 z "},"ģ":{"ha":1153,"x_min":17,"x_max":1042,"o":"m 1042 96 q 903 -196 1042 -106 q 496 -286 765 -286 l 189 -286 l 17 -108 l 501 -108 q 745 -57 656 -108 q 835 96 835 -6 l 835 163 q 672 33 772 85 q 444 -18 572 -18 q 172 88 281 -18 q 63 361 63 194 l 63 406 q 172 678 63 572 q 444 785 281 785 q 672 733 572 785 q 835 604 772 682 l 835 764 l 1042 764 l 1042 96 m 258 361 q 335 223 258 272 q 526 174 413 174 q 692 199 608 174 q 835 261 776 224 l 835 506 q 692 568 776 543 q 526 593 608 593 q 335 544 413 593 q 258 406 258 494 l 258 361 z "},"h":{"ha":1144,"x_min":111,"x_max":1054,"o":"m 636 593 q 463 567 557 593 q 318 500 369 540 l 318 0 l 111 0 l 111 1058 l 318 1058 l 318 599 q 477 733 376 681 q 696 785 578 785 q 960 686 865 785 q 1054 417 1054 588 l 1054 0 l 847 0 l 847 375 q 801 546 847 499 q 636 593 754 593 z "},"ĥ":{"ha":1144,"x_min":111,"x_max":1054,"o":"m 636 593 q 463 567 557 593 q 318 500 369 540 l 318 0 l 111 0 l 111 1058 l 318 1058 l 318 599 q 477 733 376 681 q 696 785 578 785 q 960 686 865 785 q 1054 417 1054 588 l 1054 0 l 847 0 l 847 375 q 801 546 847 499 q 636 593 754 593 z "},"ħ":{"ha":1144,"x_min":111,"x_max":1054,"o":"m 636 593 q 463 567 557 593 q 318 500 369 540 l 318 0 l 111 0 l 111 1058 l 318 1058 l 318 599 q 477 733 376 681 q 696 785 578 785 q 960 686 865 785 q 1054 417 1054 588 l 1054 0 l 847 0 l 847 375 q 801 546 847 499 q 636 593 754 593 z "},"i":{"ha":429,"x_min":111,"x_max":614,"o":"m 111 1058 l 614 1058 l 614 888 l 111 888 l 111 1058 m 111 764 l 318 764 l 318 0 l 111 0 l 111 764 z "},"ì":{"ha":429,"x_min":111,"x_max":614,"o":"m 111 1058 l 614 1058 l 614 888 l 111 888 l 111 1058 m 111 764 l 318 764 l 318 0 l 111 0 l 111 764 z "},"í":{"ha":429,"x_min":111,"x_max":614,"o":"m 111 1058 l 614 1058 l 614 888 l 111 888 l 111 1058 m 111 764 l 318 764 l 318 0 l 111 0 l 111 764 z "},"î":{"ha":429,"x_min":111,"x_max":614,"o":"m 111 1058 l 614 1058 l 614 888 l 111 888 l 111 1058 m 111 764 l 318 764 l 318 0 l 111 0 l 111 764 z "},"ï":{"ha":429,"x_min":111,"x_max":614,"o":"m 111 1058 l 614 1058 l 614 888 l 111 888 l 111 1058 m 111 764 l 318 764 l 318 0 l 111 0 l 111 764 z "},"ĩ":{"ha":429,"x_min":111,"x_max":614,"o":"m 111 1058 l 614 1058 l 614 888 l 111 888 l 111 1058 m 111 764 l 318 764 l 318 0 l 111 0 l 111 764 z "},"ī":{"ha":429,"x_min":111,"x_max":614,"o":"m 111 1058 l 614 1058 l 614 888 l 111 888 l 111 1058 m 111 764 l 318 764 l 318 0 l 111 0 l 111 764 z "},"ĭ":{"ha":429,"x_min":111,"x_max":614,"o":"m 111 1058 l 614 1058 l 614 888 l 111 888 l 111 1058 m 111 764 l 318 764 l 318 0 l 111 0 l 111 764 z "},"į":{"ha":429,"x_min":111,"x_max":614,"o":"m 111 1058 l 614 1058 l 614 888 l 111 888 l 111 1058 m 111 764 l 318 764 l 318 0 l 111 0 l 111 764 z "},"ı":{"ha":429,"x_min":111,"x_max":614,"o":"m 111 1058 l 614 1058 l 614 888 l 111 888 l 111 1058 m 111 764 l 318 764 l 318 0 l 111 0 l 111 764 z "},"ị":{"ha":429,"x_min":111,"x_max":614,"o":"m 111 1058 l 614 1058 l 614 888 l 111 888 l 111 1058 m 111 764 l 318 764 l 318 0 l 111 0 l 111 764 z "},"j":{"ha":756,"x_min":21,"x_max":940,"o":"m 438 1058 l 940 1058 l 940 888 l 438 888 l 438 1058 m 21 583 l 21 764 l 644 764 l 644 93 q 522 -197 644 -108 q 160 -286 400 -286 l 160 -101 q 365 -49 292 -101 q 438 93 438 3 l 438 583 l 21 583 z "},"ĵ":{"ha":756,"x_min":21,"x_max":940,"o":"m 438 1058 l 940 1058 l 940 888 l 438 888 l 438 1058 m 21 583 l 21 764 l 644 764 l 644 93 q 522 -197 644 -108 q 160 -286 400 -286 l 160 -101 q 365 -49 292 -101 q 438 93 438 3 l 438 583 l 21 583 z "},"ȷ":{"ha":756,"x_min":21,"x_max":940,"o":"m 438 1058 l 940 1058 l 940 888 l 438 888 l 438 1058 m 21 583 l 21 764 l 644 764 l 644 93 q 522 -197 644 -108 q 160 -286 400 -286 l 160 -101 q 365 -49 292 -101 q 438 93 438 3 l 438 583 l 21 583 z "},"k":{"ha":1117,"x_min":111,"x_max":1225,"o":"m 750 0 l 506 403 l 318 308 l 318 0 l 111 0 l 111 1058 l 318 1058 l 318 510 l 825 764 l 1225 764 l 683 492 l 983 0 l 750 0 z "},"ķ":{"ha":1117,"x_min":111,"x_max":1225,"o":"m 750 0 l 506 403 l 318 308 l 318 0 l 111 0 l 111 1058 l 318 1058 l 318 510 l 825 764 l 1225 764 l 683 492 l 983 0 l 750 0 z "},"l":{"ha":429,"x_min":111,"x_max":318,"o":"m 111 1058 l 318 1058 l 318 0 l 111 0 l 111 1058 z "},"ĺ":{"ha":429,"x_min":111,"x_max":318,"o":"m 111 1058 l 318 1058 l 318 0 l 111 0 l 111 1058 z "},"ļ":{"ha":429,"x_min":111,"x_max":318,"o":"m 111 1058 l 318 1058 l 318 0 l 111 0 l 111 1058 z "},"ľ":{"ha":429,"x_min":111,"x_max":318,"o":"m 111 1058 l 318 1058 l 318 0 l 111 0 l 111 1058 z "},"ŀ":{"ha":429,"x_min":111,"x_max":318,"o":"m 111 1058 l 318 1058 l 318 0 l 111 0 l 111 1058 z "},"ł":{"ha":429,"x_min":111,"x_max":318,"o":"m 111 1058 l 318 1058 l 318 0 l 111 0 l 111 1058 z "},"m":{"ha":1797,"x_min":111,"x_max":1707,"o":"m 597 593 q 449 565 532 593 q 318 500 365 536 l 318 0 l 111 0 l 111 764 l 318 764 l 318 600 q 470 731 372 678 q 676 785 568 785 q 876 728 793 785 q 992 568 960 671 q 1144 719 1039 654 q 1371 785 1250 785 q 1616 690 1525 785 q 1707 431 1707 594 l 1707 0 l 1500 0 l 1500 375 q 1453 542 1500 490 q 1292 593 1406 593 q 1140 563 1225 593 q 1008 497 1054 533 q 1013 431 1013 467 l 1013 0 l 806 0 l 806 375 q 758 542 806 490 q 597 593 711 593 z "},"n":{"ha":1144,"x_min":111,"x_max":1054,"o":"m 636 593 q 463 567 557 593 q 318 500 369 540 l 318 0 l 111 0 l 111 764 l 318 764 l 318 599 q 477 733 376 681 q 696 785 578 785 q 960 686 865 785 q 1054 417 1054 588 l 1054 0 l 847 0 l 847 375 q 801 546 847 499 q 636 593 754 593 z "},"ñ":{"ha":1144,"x_min":111,"x_max":1054,"o":"m 636 593 q 463 567 557 593 q 318 500 369 540 l 318 0 l 111 0 l 111 764 l 318 764 l 318 599 q 477 733 376 681 q 696 785 578 785 q 960 686 865 785 q 1054 417 1054 588 l 1054 0 l 847 0 l 847 375 q 801 546 847 499 q 636 593 754 593 z "},"ń":{"ha":1144,"x_min":111,"x_max":1054,"o":"m 636 593 q 463 567 557 593 q 318 500 369 540 l 318 0 l 111 0 l 111 764 l 318 764 l 318 599 q 477 733 376 681 q 696 785 578 785 q 960 686 865 785 q 1054 417 1054 588 l 1054 0 l 847 0 l 847 375 q 801 546 847 499 q 636 593 754 593 z "},"ņ":{"ha":1144,"x_min":111,"x_max":1054,"o":"m 636 593 q 463 567 557 593 q 318 500 369 540 l 318 0 l 111 0 l 111 764 l 318 764 l 318 599 q 477 733 376 681 q 696 785 578 785 q 960 686 865 785 q 1054 417 1054 588 l 1054 0 l 847 0 l 847 375 q 801 546 847 499 q 636 593 754 593 z "},"ň":{"ha":1144,"x_min":111,"x_max":1054,"o":"m 636 593 q 463 567 557 593 q 318 500 369 540 l 318 0 l 111 0 l 111 764 l 318 764 l 318 599 q 477 733 376 681 q 696 785 578 785 q 960 686 865 785 q 1054 417 1054 588 l 1054 0 l 847 0 l 847 375 q 801 546 847 499 q 636 593 754 593 z "},"ŋ":{"ha":1144,"x_min":111,"x_max":1054,"o":"m 636 593 q 463 567 557 593 q 318 500 369 540 l 318 0 l 111 0 l 111 764 l 318 764 l 318 599 q 477 733 376 681 q 696 785 578 785 q 960 686 865 785 q 1054 417 1054 588 l 1054 0 l 847 0 l 847 375 q 801 546 847 499 q 636 593 754 593 z "},"o":{"ha":1169,"x_min":63,"x_max":1107,"o":"m 1107 361 q 969 78 1107 175 q 585 -18 831 -18 q 201 78 339 -18 q 63 361 63 175 l 63 406 q 201 688 63 592 q 585 785 339 785 q 969 688 831 785 q 1107 406 1107 592 l 1107 361 m 911 361 l 911 406 q 824 551 911 501 q 585 600 736 600 q 346 551 433 600 q 258 406 258 501 l 258 361 q 346 216 258 265 q 585 167 433 167 q 824 216 736 167 q 911 361 911 265 z "},"ò":{"ha":1169,"x_min":63,"x_max":1107,"o":"m 1107 361 q 969 78 1107 175 q 585 -18 831 -18 q 201 78 339 -18 q 63 361 63 175 l 63 406 q 201 688 63 592 q 585 785 339 785 q 969 688 831 785 q 1107 406 1107 592 l 1107 361 m 911 361 l 911 406 q 824 551 911 501 q 585 600 736 600 q 346 551 433 600 q 258 406 258 501 l 258 361 q 346 216 258 265 q 585 167 433 167 q 824 216 736 167 q 911 361 911 265 z "},"ó":{"ha":1169,"x_min":63,"x_max":1107,"o":"m 1107 361 q 969 78 1107 175 q 585 -18 831 -18 q 201 78 339 -18 q 63 361 63 175 l 63 406 q 201 688 63 592 q 585 785 339 785 q 969 688 831 785 q 1107 406 1107 592 l 1107 361 m 911 361 l 911 406 q 824 551 911 501 q 585 600 736 600 q 346 551 433 600 q 258 406 258 501 l 258 361 q 346 216 258 265 q 585 167 433 167 q 824 216 736 167 q 911 361 911 265 z "},"ô":{"ha":1169,"x_min":63,"x_max":1107,"o":"m 1107 361 q 969 78 1107 175 q 585 -18 831 -18 q 201 78 339 -18 q 63 361 63 175 l 63 406 q 201 688 63 592 q 585 785 339 785 q 969 688 831 785 q 1107 406 1107 592 l 1107 361 m 911 361 l 911 406 q 824 551 911 501 q 585 600 736 600 q 346 551 433 600 q 258 406 258 501 l 258 361 q 346 216 258 265 q 585 167 433 167 q 824 216 736 167 q 911 361 911 265 z "},"õ":{"ha":1169,"x_min":63,"x_max":1107,"o":"m 1107 361 q 969 78 1107 175 q 585 -18 831 -18 q 201 78 339 -18 q 63 361 63 175 l 63 406 q 201 688 63 592 q 585 785 339 785 q 969 688 831 785 q 1107 406 1107 592 l 1107 361 m 911 361 l 911 406 q 824 551 911 501 q 585 600 736 600 q 346 551 433 600 q 258 406 258 501 l 258 361 q 346 216 258 265 q 585 167 433 167 q 824 216 736 167 q 911 361 911 265 z "},"ö":{"ha":1169,"x_min":63,"x_max":1107,"o":"m 1107 361 q 969 78 1107 175 q 585 -18 831 -18 q 201 78 339 -18 q 63 361 63 175 l 63 406 q 201 688 63 592 q 585 785 339 785 q 969 688 831 785 q 1107 406 1107 592 l 1107 361 m 911 361 l 911 406 q 824 551 911 501 q 585 600 736 600 q 346 551 433 600 q 258 406 258 501 l 258 361 q 346 216 258 265 q 585 167 433 167 q 824 216 736 167 q 911 361 911 265 z "},"ø":{"ha":1169,"x_min":63,"x_max":1107,"o":"m 1107 361 q 969 78 1107 175 q 585 -18 831 -18 q 201 78 339 -18 q 63 361 63 175 l 63 406 q 201 688 63 592 q 585 785 339 785 q 969 688 831 785 q 1107 406 1107 592 l 1107 361 m 911 361 l 911 406 q 824 551 911 501 q 585 600 736 600 q 346 551 433 600 q 258 406 258 501 l 258 361 q 346 216 258 265 q 585 167 433 167 q 824 216 736 167 q 911 361 911 265 z "},"ō":{"ha":1169,"x_min":63,"x_max":1107,"o":"m 1107 361 q 969 78 1107 175 q 585 -18 831 -18 q 201 78 339 -18 q 63 361 63 175 l 63 406 q 201 688 63 592 q 585 785 339 785 q 969 688 831 785 q 1107 406 1107 592 l 1107 361 m 911 361 l 911 406 q 824 551 911 501 q 585 600 736 600 q 346 551 433 600 q 258 406 258 501 l 258 361 q 346 216 258 265 q 585 167 433 167 q 824 216 736 167 q 911 361 911 265 z "},"ŏ":{"ha":1169,"x_min":63,"x_max":1107,"o":"m 1107 361 q 969 78 1107 175 q 585 -18 831 -18 q 201 78 339 -18 q 63 361 63 175 l 63 406 q 201 688 63 592 q 585 785 339 785 q 969 688 831 785 q 1107 406 1107 592 l 1107 361 m 911 361 l 911 406 q 824 551 911 501 q 585 600 736 600 q 346 551 433 600 q 258 406 258 501 l 258 361 q 346 216 258 265 q 585 167 433 167 q 824 216 736 167 q 911 361 911 265 z "},"ő":{"ha":1169,"x_min":63,"x_max":1107,"o":"m 1107 361 q 969 78 1107 175 q 585 -18 831 -18 q 201 78 339 -18 q 63 361 63 175 l 63 406 q 201 688 63 592 q 585 785 339 785 q 969 688 831 785 q 1107 406 1107 592 l 1107 361 m 911 361 l 911 406 q 824 551 911 501 q 585 600 736 600 q 346 551 433 600 q 258 406 258 501 l 258 361 q 346 216 258 265 q 585 167 433 167 q 824 216 736 167 q 911 361 911 265 z "},"œ":{"ha":1169,"x_min":63,"x_max":1107,"o":"m 1107 361 q 969 78 1107 175 q 585 -18 831 -18 q 201 78 339 -18 q 63 361 63 175 l 63 406 q 201 688 63 592 q 585 785 339 785 q 969 688 831 785 q 1107 406 1107 592 l 1107 361 m 911 361 l 911 406 q 824 551 911 501 q 585 600 736 600 q 346 551 433 600 q 258 406 258 501 l 258 361 q 346 216 258 265 q 585 167 433 167 q 824 216 736 167 q 911 361 911 265 z "},"ọ":{"ha":1169,"x_min":63,"x_max":1107,"o":"m 1107 361 q 969 78 1107 175 q 585 -18 831 -18 q 201 78 339 -18 q 63 361 63 175 l 63 406 q 201 688 63 592 q 585 785 339 785 q 969 688 831 785 q 1107 406 1107 592 l 1107 361 m 911 361 l 911 406 q 824 551 911 501 q 585 600 736 600 q 346 551 433 600 q 258 406 258 501 l 258 361 q 346 216 258 265 q 585 167 433 167 q 824 216 736 167 q 911 361 911 265 z "},"p":{"ha":1181,"x_min":111,"x_max":1118,"o":"m 722 -18 q 488 34 593 -18 q 318 164 382 86 l 318 -286 l 111 -286 l 111 764 l 318 764 l 318 603 q 488 733 382 681 q 722 785 593 785 q 1008 681 897 785 q 1118 406 1118 576 l 1118 361 q 1008 86 1118 190 q 722 -18 897 -18 m 640 593 q 468 567 557 593 q 318 506 379 542 l 318 261 q 468 199 379 225 q 640 174 557 174 q 844 221 767 174 q 922 361 922 268 l 922 406 q 844 546 922 499 q 640 593 767 593 z "},"þ":{"ha":1181,"x_min":111,"x_max":1118,"o":"m 722 -18 q 488 34 593 -18 q 318 164 382 86 l 318 -286 l 111 -286 l 111 764 l 318 764 l 318 603 q 488 733 382 681 q 722 785 593 785 q 1008 681 897 785 q 1118 406 1118 576 l 1118 361 q 1008 86 1118 190 q 722 -18 897 -18 m 640 593 q 468 567 557 593 q 318 506 379 542 l 318 261 q 468 199 379 225 q 640 174 557 174 q 844 221 767 174 q 922 361 922 268 l 922 406 q 844 546 922 499 q 640 593 767 593 z "},"q":{"ha":1181,"x_min":63,"x_max":1069,"o":"m 1069 764 l 1069 -286 l 863 -286 l 863 164 q 693 34 799 86 q 458 -18 588 -18 q 173 86 283 -18 q 63 361 63 190 l 63 406 q 173 681 63 576 q 458 785 283 785 q 693 733 588 785 q 863 603 799 681 l 863 764 l 1069 764 m 258 361 q 336 221 258 268 q 540 174 414 174 q 713 199 624 174 q 863 261 801 225 l 863 506 q 713 567 801 542 q 540 593 624 593 q 336 546 414 593 q 258 406 258 499 l 258 361 z "},"r":{"ha":758,"x_min":111,"x_max":772,"o":"m 572 547 q 318 469 394 547 l 318 0 l 111 0 l 111 764 l 318 764 l 318 583 q 410 705 349 650 q 551 775 471 760 l 772 547 l 572 547 z "},"ŕ":{"ha":758,"x_min":111,"x_max":772,"o":"m 572 547 q 318 469 394 547 l 318 0 l 111 0 l 111 764 l 318 764 l 318 583 q 410 705 349 650 q 551 775 471 760 l 772 547 l 572 547 z "},"ŗ":{"ha":758,"x_min":111,"x_max":772,"o":"m 572 547 q 318 469 394 547 l 318 0 l 111 0 l 111 764 l 318 764 l 318 583 q 410 705 349 650 q 551 775 471 760 l 772 547 l 572 547 z "},"ř":{"ha":758,"x_min":111,"x_max":772,"o":"m 572 547 q 318 469 394 547 l 318 0 l 111 0 l 111 764 l 318 764 l 318 583 q 410 705 349 650 q 551 775 471 760 l 772 547 l 572 547 z "},"s":{"ha":999,"x_min":51,"x_max":942,"o":"m 539 -18 q 294 11 400 -18 q 121 111 189 40 q 51 288 53 182 l 253 288 q 342 188 263 222 q 539 153 421 153 q 694 175 640 153 q 747 226 747 197 l 747 235 q 625 285 747 267 q 617 286 619 286 l 357 326 q 151 396 217 349 q 85 542 85 443 l 85 554 q 471 785 85 785 q 774 718 660 785 q 903 528 889 651 l 700 528 q 615 594 682 572 q 457 615 547 615 q 281 561 281 615 l 281 553 q 314 519 281 531 q 415 497 347 508 l 708 451 q 883 386 824 433 q 942 253 942 339 l 942 232 q 539 -18 942 -18 z "},"ß":{"ha":999,"x_min":51,"x_max":942,"o":"m 539 -18 q 294 11 400 -18 q 121 111 189 40 q 51 288 53 182 l 253 288 q 342 188 263 222 q 539 153 421 153 q 694 175 640 153 q 747 226 747 197 l 747 235 q 625 285 747 267 q 617 286 619 286 l 357 326 q 151 396 217 349 q 85 542 85 443 l 85 554 q 471 785 85 785 q 774 718 660 785 q 903 528 889 651 l 700 528 q 615 594 682 572 q 457 615 547 615 q 281 561 281 615 l 281 553 q 314 519 281 531 q 415 497 347 508 l 708 451 q 883 386 824 433 q 942 253 942 339 l 942 232 q 539 -18 942 -18 z "},"ś":{"ha":999,"x_min":51,"x_max":942,"o":"m 539 -18 q 294 11 400 -18 q 121 111 189 40 q 51 288 53 182 l 253 288 q 342 188 263 222 q 539 153 421 153 q 694 175 640 153 q 747 226 747 197 l 747 235 q 625 285 747 267 q 617 286 619 286 l 357 326 q 151 396 217 349 q 85 542 85 443 l 85 554 q 471 785 85 785 q 774 718 660 785 q 903 528 889 651 l 700 528 q 615 594 682 572 q 457 615 547 615 q 281 561 281 615 l 281 553 q 314 519 281 531 q 415 497 347 508 l 708 451 q 883 386 824 433 q 942 253 942 339 l 942 232 q 539 -18 942 -18 z "},"ŝ":{"ha":999,"x_min":51,"x_max":942,"o":"m 539 -18 q 294 11 400 -18 q 121 111 189 40 q 51 288 53 182 l 253 288 q 342 188 263 222 q 539 153 421 153 q 694 175 640 153 q 747 226 747 197 l 747 235 q 625 285 747 267 q 617 286 619 286 l 357 326 q 151 396 217 349 q 85 542 85 443 l 85 554 q 471 785 85 785 q 774 718 660 785 q 903 528 889 651 l 700 528 q 615 594 682 572 q 457 615 547 615 q 281 561 281 615 l 281 553 q 314 519 281 531 q 415 497 347 508 l 708 451 q 883 386 824 433 q 942 253 942 339 l 942 232 q 539 -18 942 -18 z "},"ş":{"ha":999,"x_min":51,"x_max":942,"o":"m 539 -18 q 294 11 400 -18 q 121 111 189 40 q 51 288 53 182 l 253 288 q 342 188 263 222 q 539 153 421 153 q 694 175 640 153 q 747 226 747 197 l 747 235 q 625 285 747 267 q 617 286 619 286 l 357 326 q 151 396 217 349 q 85 542 85 443 l 85 554 q 471 785 85 785 q 774 718 660 785 q 903 528 889 651 l 700 528 q 615 594 682 572 q 457 615 547 615 q 281 561 281 615 l 281 553 q 314 519 281 531 q 415 497 347 508 l 708 451 q 883 386 824 433 q 942 253 942 339 l 942 232 q 539 -18 942 -18 z "},"š":{"ha":999,"x_min":51,"x_max":942,"o":"m 539 -18 q 294 11 400 -18 q 121 111 189 40 q 51 288 53 182 l 253 288 q 342 188 263 222 q 539 153 421 153 q 694 175 640 153 q 747 226 747 197 l 747 235 q 625 285 747 267 q 617 286 619 286 l 357 326 q 151 396 217 349 q 85 542 85 443 l 85 554 q 471 785 85 785 q 774 718 660 785 q 903 528 889 651 l 700 528 q 615 594 682 572 q 457 615 547 615 q 281 561 281 615 l 281 553 q 314 519 281 531 q 415 497 347 508 l 708 451 q 883 386 824 433 q 942 253 942 339 l 942 232 q 539 -18 942 -18 z "},"ș":{"ha":999,"x_min":51,"x_max":942,"o":"m 539 -18 q 294 11 400 -18 q 121 111 189 40 q 51 288 53 182 l 253 288 q 342 188 263 222 q 539 153 421 153 q 694 175 640 153 q 747 226 747 197 l 747 235 q 625 285 747 267 q 617 286 619 286 l 357 326 q 151 396 217 349 q 85 542 85 443 l 85 554 q 471 785 85 785 q 774 718 660 785 q 903 528 889 651 l 700 528 q 615 594 682 572 q 457 615 547 615 q 281 561 281 615 l 281 553 q 314 519 281 531 q 415 497 347 508 l 708 451 q 883 386 824 433 q 942 253 942 339 l 942 232 q 539 -18 942 -18 z "},"t":{"ha":869,"x_min":32,"x_max":851,"o":"m 851 583 l 413 583 l 413 278 l 833 0 l 481 0 l 206 182 l 206 583 l 32 583 l 32 764 l 206 764 l 206 972 l 413 972 l 413 764 l 676 764 l 851 583 z "},"ţ":{"ha":869,"x_min":32,"x_max":851,"o":"m 851 583 l 413 583 l 413 278 l 833 0 l 481 0 l 206 182 l 206 583 l 32 583 l 32 764 l 206 764 l 206 972 l 413 972 l 413 764 l 676 764 l 851 583 z "},"ť":{"ha":869,"x_min":32,"x_max":851,"o":"m 851 583 l 413 583 l 413 278 l 833 0 l 481 0 l 206 182 l 206 583 l 32 583 l 32 764 l 206 764 l 206 972 l 413 972 l 413 764 l 676 764 l 851 583 z "},"ŧ":{"ha":869,"x_min":32,"x_max":851,"o":"m 851 583 l 413 583 l 413 278 l 833 0 l 481 0 l 206 182 l 206 583 l 32 583 l 32 764 l 206 764 l 206 972 l 413 972 l 413 764 l 676 764 l 851 583 z "},"ț":{"ha":869,"x_min":32,"x_max":851,"o":"m 851 583 l 413 583 l 413 278 l 833 0 l 481 0 l 206 182 l 206 583 l 32 583 l 32 764 l 206 764 l 206 972 l 413 972 l 413 764 l 676 764 l 851 583 z "},"u":{"ha":1117,"x_min":90,"x_max":1006,"o":"m 799 0 l 799 168 q 644 36 739 90 q 443 -18 549 -18 q 184 81 278 -18 q 90 350 90 181 l 90 764 l 297 764 l 297 392 q 344 221 297 268 q 508 174 390 174 q 799 264 656 174 l 799 764 l 1006 764 l 1006 0 l 799 0 z "},"ù":{"ha":1117,"x_min":90,"x_max":1006,"o":"m 799 0 l 799 168 q 644 36 739 90 q 443 -18 549 -18 q 184 81 278 -18 q 90 350 90 181 l 90 764 l 297 764 l 297 392 q 344 221 297 268 q 508 174 390 174 q 799 264 656 174 l 799 764 l 1006 764 l 1006 0 l 799 0 z "},"ú":{"ha":1117,"x_min":90,"x_max":1006,"o":"m 799 0 l 799 168 q 644 36 739 90 q 443 -18 549 -18 q 184 81 278 -18 q 90 350 90 181 l 90 764 l 297 764 l 297 392 q 344 221 297 268 q 508 174 390 174 q 799 264 656 174 l 799 764 l 1006 764 l 1006 0 l 799 0 z "},"û":{"ha":1117,"x_min":90,"x_max":1006,"o":"m 799 0 l 799 168 q 644 36 739 90 q 443 -18 549 -18 q 184 81 278 -18 q 90 350 90 181 l 90 764 l 297 764 l 297 392 q 344 221 297 268 q 508 174 390 174 q 799 264 656 174 l 799 764 l 1006 764 l 1006 0 l 799 0 z "},"ü":{"ha":1117,"x_min":90,"x_max":1006,"o":"m 799 0 l 799 168 q 644 36 739 90 q 443 -18 549 -18 q 184 81 278 -18 q 90 350 90 181 l 90 764 l 297 764 l 297 392 q 344 221 297 268 q 508 174 390 174 q 799 264 656 174 l 799 764 l 1006 764 l 1006 0 l 799 0 z "},"ũ":{"ha":1117,"x_min":90,"x_max":1006,"o":"m 799 0 l 799 168 q 644 36 739 90 q 443 -18 549 -18 q 184 81 278 -18 q 90 350 90 181 l 90 764 l 297 764 l 297 392 q 344 221 297 268 q 508 174 390 174 q 799 264 656 174 l 799 764 l 1006 764 l 1006 0 l 799 0 z "},"ū":{"ha":1117,"x_min":90,"x_max":1006,"o":"m 799 0 l 799 168 q 644 36 739 90 q 443 -18 549 -18 q 184 81 278 -18 q 90 350 90 181 l 90 764 l 297 764 l 297 392 q 344 221 297 268 q 508 174 390 174 q 799 264 656 174 l 799 764 l 1006 764 l 1006 0 l 799 0 z "},"ŭ":{"ha":1117,"x_min":90,"x_max":1006,"o":"m 799 0 l 799 168 q 644 36 739 90 q 443 -18 549 -18 q 184 81 278 -18 q 90 350 90 181 l 90 764 l 297 764 l 297 392 q 344 221 297 268 q 508 174 390 174 q 799 264 656 174 l 799 764 l 1006 764 l 1006 0 l 799 0 z "},"ů":{"ha":1117,"x_min":90,"x_max":1006,"o":"m 799 0 l 799 168 q 644 36 739 90 q 443 -18 549 -18 q 184 81 278 -18 q 90 350 90 181 l 90 764 l 297 764 l 297 392 q 344 221 297 268 q 508 174 390 174 q 799 264 656 174 l 799 764 l 1006 764 l 1006 0 l 799 0 z "},"ű":{"ha":1117,"x_min":90,"x_max":1006,"o":"m 799 0 l 799 168 q 644 36 739 90 q 443 -18 549 -18 q 184 81 278 -18 q 90 350 90 181 l 90 764 l 297 764 l 297 392 q 344 221 297 268 q 508 174 390 174 q 799 264 656 174 l 799 764 l 1006 764 l 1006 0 l 799 0 z "},"ų":{"ha":1117,"x_min":90,"x_max":1006,"o":"m 799 0 l 799 168 q 644 36 739 90 q 443 -18 549 -18 q 184 81 278 -18 q 90 350 90 181 l 90 764 l 297 764 l 297 392 q 344 221 297 268 q 508 174 390 174 q 799 264 656 174 l 799 764 l 1006 764 l 1006 0 l 799 0 z "},"ụ":{"ha":1117,"x_min":90,"x_max":1006,"o":"m 799 0 l 799 168 q 644 36 739 90 q 443 -18 549 -18 q 184 81 278 -18 q 90 350 90 181 l 90 764 l 297 764 l 297 392 q 344 221 297 268 q 508 174 390 174 q 799 264 656 174 l 799 764 l 1006 764 l 1006 0 l 799 0 z "},"v":{"ha":1075,"x_min":14,"x_max":1061,"o":"m 1061 764 l 707 0 l 368 0 l 14 764 l 253 764 l 538 117 l 822 764 l 1061 764 z "},"w":{"ha":1372,"x_min":31,"x_max":1342,"o":"m 840 0 l 686 407 l 532 0 l 179 0 l 31 764 l 250 764 l 371 118 l 686 868 l 1001 118 l 1122 764 l 1342 764 l 1193 0 l 840 0 z "},"ŵ":{"ha":1372,"x_min":31,"x_max":1342,"o":"m 840 0 l 686 407 l 532 0 l 179 0 l 31 764 l 250 764 l 371 118 l 686 868 l 1001 118 l 1122 764 l 1342 764 l 1193 0 l 840 0 z "},"ẁ":{"ha":1372,"x_min":31,"x_max":1342,"o":"m 840 0 l 686 407 l 532 0 l 179 0 l 31 764 l 250 764 l 371 118 l 686 868 l 1001 118 l 1122 764 l 1342 764 l 1193 0 l 840 0 z "},"ẃ":{"ha":1372,"x_min":31,"x_max":1342,"o":"m 840 0 l 686 407 l 532 0 l 179 0 l 31 764 l 250 764 l 371 118 l 686 868 l 1001 118 l 1122 764 l 1342 764 l 1193 0 l 840 0 z "},"ẅ":{"ha":1372,"x_min":31,"x_max":1342,"o":"m 840 0 l 686 407 l 532 0 l 179 0 l 31 764 l 250 764 l 371 118 l 686 868 l 1001 118 l 1122 764 l 1342 764 l 1193 0 l 840 0 z "},"x":{"ha":1089,"x_min":0,"x_max":1089,"o":"m 758 0 l 544 308 l 331 0 l 83 0 l 339 364 l 0 764 l 257 764 l 544 422 l 832 764 l 1089 764 l 750 364 l 1006 0 l 758 0 z "},"y":{"ha":1024,"x_min":24,"x_max":1024,"o":"m 786 764 l 1024 764 l 471 -286 l 233 -286 l 383 0 l 239 0 l 24 764 l 244 764 l 433 93 l 786 764 z "},"ý":{"ha":1024,"x_min":24,"x_max":1024,"o":"m 786 764 l 1024 764 l 471 -286 l 233 -286 l 383 0 l 239 0 l 24 764 l 244 764 l 433 93 l 786 764 z "},"ÿ":{"ha":1024,"x_min":24,"x_max":1024,"o":"m 786 764 l 1024 764 l 471 -286 l 233 -286 l 383 0 l 239 0 l 24 764 l 244 764 l 433 93 l 786 764 z "},"ŷ":{"ha":1024,"x_min":24,"x_max":1024,"o":"m 786 764 l 1024 764 l 471 -286 l 233 -286 l 383 0 l 239 0 l 24 764 l 244 764 l 433 93 l 786 764 z "},"ȳ":{"ha":1024,"x_min":24,"x_max":1024,"o":"m 786 764 l 1024 764 l 471 -286 l 233 -286 l 383 0 l 239 0 l 24 764 l 244 764 l 433 93 l 786 764 z "},"ỳ":{"ha":1024,"x_min":24,"x_max":1024,"o":"m 786 764 l 1024 764 l 471 -286 l 233 -286 l 383 0 l 239 0 l 24 764 l 244 764 l 433 93 l 786 764 z "},"z":{"ha":1011,"x_min":53,"x_max":979,"o":"m 979 0 l 158 0 l 158 181 l 638 583 l 53 583 l 53 764 l 888 764 l 888 583 l 408 181 l 979 181 l 979 0 z "},"ź":{"ha":1011,"x_min":53,"x_max":979,"o":"m 979 0 l 158 0 l 158 181 l 638 583 l 53 583 l 53 764 l 888 764 l 888 583 l 408 181 l 979 181 l 979 0 z "},"ż":{"ha":1011,"x_min":53,"x_max":979,"o":"m 979 0 l 158 0 l 158 181 l 638 583 l 53 583 l 53 764 l 888 764 l 888 583 l 408 181 l 979 181 l 979 0 z "},"ž":{"ha":1011,"x_min":53,"x_max":979,"o":"m 979 0 l 158 0 l 158 181 l 638 583 l 53 583 l 53 764 l 888 764 l 888 583 l 408 181 l 979 181 l 979 0 z "}," ":{"ha":486,"x_min":0,"x_max":0,"o":""},"­":{"ha":789,"x_min":97,"x_max":692,"o":"m 692 317 l 97 317 l 97 515 l 692 515 l 692 317 z "},"·":{"ha":757,"x_min":222,"x_max":535,"o":"m 268 306 q 245 329 268 306 q 222 417 222 351 q 268 528 222 482 q 379 574 314 574 q 490 528 444 574 q 535 417 535 482 q 490 307 535 353 q 379 261 444 261 q 268 306 314 261 z "},"’":{"ha":472,"x_min":7,"x_max":465,"o":"m 465 972 l 225 369 l 7 369 l 247 972 l 465 972 z "},"•":{"ha":856,"x_min":194,"x_max":661,"o":"m 263 251 q 228 285 263 251 q 194 417 194 319 q 263 582 194 514 q 428 650 331 650 q 593 582 525 650 q 661 417 661 514 q 593 251 661 319 q 428 183 525 183 q 263 251 331 183 z "}}}
